<svg width="192" height="108" viewBox="0 0 192 108" fill="none" xml:space="preserve" xmlns="http://www.w3.org/2000/svg">
  <path d="m 56.12238,41.321728 c 0.100072,-3.085921 -1.920224,-8.218641 -9.892212,-6.619686 L 6.6931008,42.64454 c 1.9028608,4.042152 4.7125182,6.660376 9.5745922,5.666956 l 32.376651,-6.771692 -4.282256,4.972932 -25.99181,5.319788 c 1.42736,3.756672 4.548845,4.337964 6.505856,3.935172 l 23.458354,-5.06866 -3.906948,5.68642 -17.40331,3.429212 c 3.012692,4.297328 5.80176,4.301272 8.106368,3.777772 L 48.15756,60.306448 44.689304,65.75742 35.923769,67.883668 C 30.672838,69.062412 24.738976,66.61448 22.783898,60.213852 17.998874,59.66534 14.193811,56.774764 13.308538,52.31128 7.9230912,51.988324 5.0492992,49.02798 0,40.443304 l 46.156556,-9.54934 c 8.624156,-1.893381 12.927772,2.736524 13.622024,8.361608 l 33.488536,-7.130486 -0.467456,12.814722 -22.611756,4.58764 -0.1592,6.068176 20.738724,-4.655304 -0.60918,12.170776 -20.120188,3.905356 -0.6413,16.674992 -14.640672,2.900368 z m 44.54431,-10.782892 14.79361,-3.115717 -1.77494,33.219165 20.25924,-4.15582 -0.89228,13.71726 -34.120268,6.969692 z m 40.83493,19.907956 -14.82596,-25.135055 15.94131,-3.386389 6.64313,14.245732 8.38693,-17.493724 17.66663,-3.52952 -19.24727,35.061396 -0.61016,15.280304 -14.84449,2.922208 z" fill="#0f85cf" />
  <path d="m 142.14987,0 -11.60253,2.4825776 3.46634,15.8897434 11.60121,-2.483887 -0.6692,-3.073406 -7.48682,1.603524 -0.857,-3.92757 6.94855,-1.486922 -0.67052,-3.073406 -6.94855,1.486928 -0.59778,-2.7419676 7.48682,-1.6022019 z m 45.58353,1.6074492 c -1.68163,-0.015692 -3.84641,0.3882592 -6.46848,1.2511073 L 149.61157,13.054781 182.83741,6.5843764 c 3.36804,-0.8266172 4.4325,0.8443612 2.56703,4.0965576 L 169.93351,40.572636 189.14586,11.97791 C 193.47678,5.4740944 192.77831,1.6546007 187.7334,1.6074492 Z m -61.27928,1.7515528 -4.13686,0.8856044 1.2683,5.8153676 -6.10743,1.307445 -1.26831,-5.8153742 -4.13685,0.8856044 3.46634,15.8884408 4.13554,-0.885604 -1.5262,-6.999668 6.10742,-1.307438 1.52753,6.999661 4.13687,-0.885598 z m -16.87016,3.6105332 -14.155,3.0301744 0.67052,3.0734064 5.00974,-1.072946 2.79582,12.816337 4.13554,-0.885591 -2.79451,-12.816338 5.00842,-1.071636 z m -21.102236,4.6205848 -3.791684,0.812241 1.985116,9.102315 -7.834652,-7.851201 -4.94492,1.058531 3.466344,15.889743 3.79168,-0.812241 -2.379232,-10.904957 9.187596,9.448168 3.9861,-0.852843 z m -23.96418,4.821033 c -0.535552,-0.0013 -1.082816,0.05095 -1.637288,0.16114 -5.1014,1.187578 -8.098808,4.89953 -6.941944,10.304949 1.17614,5.105904 4.876736,7.089098 9.911012,6.042008 5.178784,-1.174641 7.605324,-5.283174 6.62454,-9.5818 -1.033676,-4.247032 -4.207496,-6.915859 -7.95632,-6.926297 z m 0.21556,4.023207 c 1.968968,0.09709 3.04816,1.874209 3.439892,3.812277 0.598388,2.686767 -0.39016,4.710085 -3.043136,5.288722 -2.930272,0.601381 -4.333344,-1.073346 -4.893348,-3.577784 -0.529192,-2.277257 0.663108,-4.704031 3.597272,-5.457723 0.3182,-0.05915 0.61804,-0.07937 0.89932,-0.06549 z m 96.584146,50.259228 -11.61444,2.426228 3.38699,15.905468 11.61444,-2.426232 -0.65466,-3.076024 -7.49476,1.565524 -0.83716,-3.931496 6.95518,-1.452864 -0.65466,-3.076028 -6.95649,1.45286 -0.58456,-2.745892 7.49475,-1.565528 z m -17.73245,3.63542 c -0.26188,0.0044 -0.53258,0.0168 -0.81335,0.038 -0.55587,0.034 -1.17179,0.12212 -1.84757,0.26332 -1.22217,0.25536 -2.30932,0.684316 -3.26267,1.285168 -0.94618,0.599352 -1.69313,1.32398 -2.24037,2.1747 -0.56992,0.885224 -0.93635,1.880544 -1.09902,2.985636 -0.16268,1.105096 -0.10968,2.287156 0.15868,3.547652 0.28812,1.353072 0.739,2.504636 1.35427,3.454624 0.62247,0.9485 1.37114,1.693288 2.24434,2.232352 0.87319,0.539068 1.84993,0.877948 2.93071,1.016612 1.08798,0.13716 2.2293,0.08032 3.4227,-0.169 0.80519,-0.16824 1.42927,-0.33908 1.8727,-0.51354 0.44342,-0.17448 0.91156,-0.39188 1.40452,-0.651108 0.37832,-0.19804 0.734,-0.413884 1.06728,-0.647164 0.33328,-0.23328 0.68144,-0.480656 1.04613,-0.742804 l -0.8094,-3.803108 -0.43114,0.09036 c -0.15772,0.21148 -0.36308,0.465676 -0.61498,0.763764 -0.25192,0.29812 -0.53151,0.588452 -0.8398,0.868584 -0.3624,0.34348 -0.77499,0.641568 -1.23921,0.894768 -0.45702,0.25168 -0.9383,0.42936 -1.44155,0.5345 -0.52481,0.10968 -1.0738,0.13888 -1.64787,0.08776 -0.57558,-0.05824 -1.1246,-0.23708 -1.64654,-0.53712 -0.51324,-0.2944 -0.985,-0.746584 -1.41511,-1.35592 -0.42291,-0.610832 -0.73993,-1.414816 -0.95222,-2.41182 -0.2032,-0.954272 -0.2472,-1.793144 -0.13092,-2.516632 0.12348,-0.724984 0.35396,-1.3343 0.69169,-1.828844 0.35628,-0.513288 0.77876,-0.91364 1.26565,-1.201332 0.48539,-0.2948 1.01926,-0.503236 1.60158,-0.6249 0.52481,-0.10968 1.03405,-0.13388 1.52752,-0.07336 0.49347,0.06056 0.96193,0.1626 1.40585,0.30788 0.43674,0.1468 0.83035,0.30624 1.18234,0.47818 0.35916,0.1704 0.65766,0.32052 0.89535,0.449352 l 0.47479,-0.0996 -0.82129,-3.855512 c -0.32508,-0.08084 -0.7018,-0.16248 -1.13209,-0.24368 -0.42461,-0.08976 -0.89271,-0.15136 -1.40319,-0.186 -0.24296,-0.0128 -0.49596,-0.0164 -0.75781,-0.012 z m -13.23849,2.834972 -9.40316,1.965096 0.60042,2.820564 2.63051,-0.550228 2.18614,10.265652 -2.63051,0.548912 0.60043,2.820572 9.40316,-1.965104 -0.60042,-2.819248 -2.63184,0.54892 -2.18614,-10.265652 2.63183,-0.54892 z m -10.98888,2.29654 -4.23737,0.885604 -1.50372,11.984452 -6.26084,-10.362596 -4.34582,0.907872 9.24182,14.681872 4.63677,-0.968136 z m -21.879882,4.847232 c -0.17436,-0.008 -0.34992,-0.0076 -0.526368,0.0013 -0.70572,0.0356 -1.533412,0.15284 -2.48238,0.35108 l -6.944592,1.451548 3.386992,15.90548 4.118348,-0.86072 -1.241852,-5.8324 1.909728,-0.39956 5.619416,4.917964 5.05735,-1.055904 -6.809694,-5.696156 c 0.916244,-0.704668 1.568664,-1.483676 1.957334,-2.33846 0.39588,-0.85628 0.46842,-1.872164 0.21824,-3.047208 -0.18196,-0.854564 -0.51264,-1.526076 -0.99189,-2.01356 C 100.2746,85.195012 99.69802,84.832364 99.018308,84.60246 98.51392,84.4289 98.000632,84.3309 97.477568,84.3077 Z m -13.4263,2.529728 -11.614424,2.426232 3.386988,15.905478 11.61444,-2.42624 -0.654656,-3.077334 -7.49476,1.566824 -0.837164,-3.931492 6.955176,-1.45286 -0.654652,-3.077336 -6.955172,1.454172 -0.58456,-2.745884 7.49476,-1.565528 z m 11.568148,0.753284 c 0.17076,-3.4e-4 0.33172,0.0144 0.484044,0.04192 0.437468,0.07968 0.769864,0.24492 0.995856,0.495204 0.226,0.25032 0.38196,0.574576 0.466864,0.97338 0.09552,0.44864 0.10276,0.822248 0.024,1.121408 -0.07328,0.29052 -0.23024,0.575936 -0.470812,0.856776 -0.2534,0.29096 -0.59552,0.514848 -1.027604,0.672068 -0.432076,0.15724 -0.978528,0.30592 -1.639928,0.444116 l -1.273592,0.26596 -0.911224,-4.283904 1.49842,-0.31308 c 0.496056,-0.10364 0.934688,-0.18092 1.314596,-0.23056 0.1892,-0.028 0.36884,-0.04288 0.539584,-0.0432 z m -29.334968,2.980388 c -1.072028,0.0084 -2.137088,0.1224 -3.1939,0.34328 -2.106432,0.4401 -3.73062,1.270816 -4.874836,2.491732 -1.13854,1.212288 -1.550644,2.558972 -1.23524,4.040224 0.23504,1.103828 0.727208,1.968036 1.475936,2.592622 0.754408,0.61595 1.853,1.00084 3.297064,1.15286 0.630456,0.0691 1.294516,0.098 1.990404,0.0865 0.701556,-0.0204 1.369404,-0.0228 2.003624,-0.006 0.603948,0.0152 1.080308,0.12096 1.429652,0.31572 0.35504,0.18616 0.569764,0.45281 0.644068,0.80176 0.08036,0.37744 0.0368,0.68383 -0.13092,0.91966 -0.16032,0.23436 -0.38544,0.44897 -0.674484,0.64325 -0.23756,0.15376 -0.556832,0.2948 -0.957512,0.42314 -0.400668,0.12832 -0.727052,0.21864 -0.978668,0.2712 -0.977736,0.20428 -2.036708,0.23652 -3.178028,0.0956 -1.134144,-0.1424 -2.200956,-0.46248 -3.200524,-0.96027 l -0.452304,0.0944 0.812032,3.81359 c 0.938524,0.1758 1.92486,0.27864 2.959824,0.30788 1.04062,0.0208 2.226272,-0.1086 3.556268,-0.38644 2.300536,-0.48066 4.01518,-1.34807 5.144632,-2.60309 1.135116,-1.26365 1.535776,-2.6792 1.202172,-4.24591 -0.23352,-1.096704 -0.718376,-1.924712 -1.453456,-2.4852 -0.729408,-0.569104 -1.751356,-0.924436 -3.065616,-1.06638 -0.66792,-0.06872 -1.286184,-0.10372 -1.856832,-0.10352 -0.563444,-0.0013 -1.152928,-6.36e-4 -1.768212,0.0013 -0.93808,0.0025 -1.59212,-0.07216 -1.962632,-0.22532 -0.37204,-0.16028 -0.60354,-0.451032 -0.693004,-0.8712 -0.05912,-0.27776 -0.0104,-0.544744 0.14548,-0.800448 0.15428,-0.2628 0.36,-0.476532 0.617616,-0.641924 0.28904,-0.19428 0.598304,-0.3478 0.927092,-0.461144 0.33448,-0.12192 0.673268,-0.21872 1.018348,-0.29084 0.977728,-0.20428 1.97208,-0.22964 2.980976,-0.076 1.014564,0.14504 1.899424,0.405856 2.655632,0.783412 l 0.441724,-0.09172 -0.780288,-3.66424 c -0.820076,-0.14848 -1.768384,-0.21472 -2.84608,-0.1978 z" fill="#c4cfd6" />
</svg>