<svg width="512" height="288" viewBox="0 0 512 288" fill="none" xml:space="preserve" xmlns="http://www.w3.org/2000/svg">
  <path d="m 149.65968,110.1908 c 0.26686,-8.22908 -5.1206,-21.916279 -26.37923,-17.652417 L 17.848269,113.71828 c 5.074295,10.77903 12.566715,17.76093 25.532245,15.11182 l 86.337736,-18.05776 -11.41935,13.26109 -69.311492,14.18604 c 3.806293,10.01775 12.130253,11.56786 17.348949,10.49375 l 62.555613,-13.51637 -10.41853,15.16372 -46.408827,9.14453 c 8.033845,11.45949 15.47136,11.47001 21.616981,10.07402 l 34.738566,-8.76262 -9.24868,14.53587 -23.374763,5.66997 C 81.794234,184.16564 65.970602,177.63785 60.757061,160.56959 47.996997,159.10689 37.850162,151.39872 35.489434,139.49616 21.128243,138.63494 13.464798,130.74072 0,107.84835 L 123.08415,82.383552 c 22.99775,-5.048995 34.47406,7.297366 36.3254,22.297518 l 89.30276,-19.01454 -1.24655,34.17245 -60.29802,12.23365 -0.42453,16.18174 55.30326,-12.4141 -1.62448,32.45526 -53.65383,10.41425 -1.71013,44.46645 -39.0418,7.73429 z m 118.78482,-28.754252 39.44963,-8.308543 -4.73317,88.584065 54.02464,-11.08214 -2.37942,36.5792 -90.98738,18.58576 z m 108.89315,53.087662 -39.53589,-67.026533 42.51016,-9.030332 17.71501,37.988457 22.36515,-46.649732 47.11101,-9.412013 -51.32605,93.496653 -1.6271,40.74731 -39.5853,7.79252 z" fill="#0f85cf" />
  <path d="m 379.06632,0 -30.94008,6.6201787 9.24357,42.3724683 30.93656,-6.623671 -1.78453,-8.195714 -19.96486,4.276046 -2.28533,-10.473475 18.52947,-3.965109 -1.78806,-8.195714 -18.52946,3.965125 -1.59408,-7.311883 19.96485,-4.2725204 z M 500.6224,4.2865129 c -4.48435,-0.041845 -10.2571,1.0353534 -17.24928,3.3362719 L 398.96418,34.812601 487.56642,17.558262 c 8.98144,-2.204303 11.82,2.251621 6.84542,10.924107 L 453.15602,108.19324 504.38896,31.940957 C 515.93808,14.597523 514.07549,4.4122497 500.6224,4.2865129 Z m -163.41142,4.6707875 -11.03162,2.3616016 3.38213,15.507581 -16.28648,3.486505 -3.38216,-15.507598 -11.0316,2.361601 9.24357,42.368995 11.02811,-2.361601 -4.06987,-18.665701 16.28646,-3.486487 4.07341,18.665683 11.03165,-2.361585 z m -44.98709,9.6280476 -37.74667,8.08043 1.78806,8.195715 13.3593,-2.861176 7.45552,34.176752 11.02811,-2.361566 -7.45203,-34.176755 13.35579,-2.857684 z m -56.27263,12.321506 -10.11116,2.165967 5.29365,24.272736 -20.89241,-20.936446 -13.18645,2.822738 9.24358,42.372466 10.11115,-2.165967 -6.34462,-29.079761 24.50026,25.195008 10.6296,-2.274239 z m -63.90448,12.856033 c -1.42814,-0.0035 -2.88751,0.135867 -4.3661,0.429706 -13.60373,3.166861 -21.59682,13.065357 -18.51185,27.479746 3.13637,13.615686 13.00463,18.904181 26.42937,16.111953 13.81009,-3.132363 20.28086,-14.088404 17.66544,-25.551357 -2.75647,-11.325371 -11.21999,-18.442213 -21.21686,-18.470048 z m 0.57483,10.728507 c 5.25058,0.258905 8.12843,4.997869 9.17304,10.166028 1.59571,7.164682 -1.04042,12.560174 -8.11502,14.103199 -7.81406,1.603675 -11.55559,-2.862244 -13.04893,-9.540717 -1.41118,-6.072659 1.76829,-12.544029 9.59272,-14.553865 0.84854,-0.157733 1.64811,-0.211653 2.39819,-0.174639 z m 257.55772,134.024036 -30.97184,6.46991 9.03197,42.41441 30.97184,-6.46993 -1.74576,-8.2027 -19.98602,4.17471 -2.23243,-10.48394 18.54715,-3.87429 -1.74576,-8.2027 -18.55064,3.87427 -1.55883,-7.32235 19.986,-4.17472 z m -47.28653,9.69441 c -0.69835,0.0117 -1.42022,0.0448 -2.16894,0.10133 -1.48232,0.0907 -3.12477,0.32565 -4.92685,0.70219 -3.25912,0.68096 -6.15819,1.82483 -8.70045,3.4271 -2.52315,1.59826 -4.51502,3.53059 -5.97432,5.79917 -1.51979,2.36059 -2.49694,5.01476 -2.93072,7.96167 -0.43382,2.94691 -0.29248,6.09905 0.42314,9.46036 0.76832,3.60817 1.97067,6.679 3.61139,9.21229 1.65992,2.52933 3.65637,4.51542 5.98491,5.95291 2.3285,1.43752 4.93314,2.34119 7.81522,2.71096 2.90128,0.36576 5.9448,0.21418 9.1272,-0.45067 2.14718,-0.44863 3.81139,-0.9042 4.99387,-1.36943 1.18245,-0.46528 2.43083,-1.04501 3.74539,-1.73628 1.00885,-0.5281 1.95733,-1.10369 2.84608,-1.72577 0.88874,-0.62207 1.81717,-1.28174 2.78968,-1.9808 l -2.1584,-10.14157 -1.14971,0.24095 c -0.42059,0.56395 -0.96821,1.2418 -1.63995,2.0367 -0.67178,0.79498 -1.41736,1.5692 -2.23946,2.31622 -0.9664,0.91593 -2.06664,1.71084 -3.30456,2.38604 -1.21872,0.67113 -2.50214,1.14495 -3.84414,1.42532 -1.39949,0.29248 -2.86346,0.37035 -4.39432,0.23403 -1.53488,-0.15531 -2.99893,-0.63222 -4.39077,-1.43232 -1.36864,-0.78506 -2.62667,-1.99089 -3.77363,-3.61577 -1.12776,-1.62888 -1.97314,-3.77282 -2.53925,-6.43149 -0.54187,-2.54472 -0.6592,-4.7817 -0.34912,-6.71099 0.32928,-1.93329 0.94389,-3.55812 1.84451,-4.8769 0.95008,-1.36876 2.07669,-2.43636 3.37506,-3.20354 1.29438,-0.78613 2.71803,-1.34195 4.27088,-1.66639 1.3995,-0.29248 2.75747,-0.35701 4.07339,-0.19563 1.31592,0.1615 2.56515,0.4336 3.74893,0.82102 1.16464,0.39145 2.21427,0.81663 3.15291,1.27513 0.95776,0.4544 1.75376,0.85472 2.3876,1.19827 l 1.26611,-0.26559 -2.19011,-10.28133 c -0.86688,-0.21557 -1.87147,-0.43328 -3.01891,-0.64981 -1.13229,-0.23936 -2.38056,-0.40363 -3.74184,-0.496 -0.64789,-0.0341 -1.32256,-0.0437 -2.02082,-0.032 z m -35.30264,7.55989 -25.0751,5.24024 1.60112,7.52147 7.0147,-1.46727 5.8297,27.37496 -7.01469,1.46375 1.60115,7.5215 25.07509,-5.24026 -1.60112,-7.51796 -7.01824,1.46378 -5.82971,-27.37496 7.01822,-1.46377 z m -29.30368,6.12409 -11.29966,2.3616 -4.00992,31.9584 -16.69557,-27.63347 -11.58885,2.42098 24.64485,39.15149 12.36472,-2.58169 z m -58.34635,12.92589 c -0.46496,-0.0213 -0.93312,-0.0203 -1.40365,0.003 -1.88192,0.0949 -4.0891,0.40757 -6.61968,0.93621 l -18.51891,3.87077 9.03197,42.41444 10.98227,-2.29525 -3.31161,-15.55299 5.09261,-1.0655 14.98511,13.11452 13.48626,-2.81573 -18.15918,-15.18969 c 2.44332,-1.8791 4.1831,-3.95645 5.21956,-6.23586 1.05568,-2.2834 1.24912,-4.99242 0.58197,-8.12586 -0.48523,-2.27883 -1.36704,-4.06952 -2.64504,-5.36946 -1.26288,-1.32305 -2.80043,-2.2901 -4.61299,-2.90318 -1.34504,-0.46283 -2.7138,-0.72416 -4.10864,-0.78603 z m -35.80347,6.74591 -30.9718,6.46992 9.03197,42.41443 30.97184,-6.46994 -1.74575,-8.20619 -19.98603,4.17818 -2.23243,-10.48394 18.54713,-3.87427 -1.74574,-8.2062 -18.54712,3.87778 -1.55883,-7.32233 19.98603,-4.17472 z m 30.84839,2.00875 c 0.45536,-9.1e-4 0.88459,0.0384 1.29079,0.11179 1.16658,0.21248 2.05297,0.65312 2.65561,1.32054 0.60267,0.66751 1.01856,1.53219 1.24497,2.59567 0.25472,1.19636 0.27403,2.19265 0.064,2.9904 -0.19541,0.77472 -0.61397,1.53583 -1.25549,2.28473 -0.67574,0.77589 -1.58806,1.37292 -2.74028,1.79218 -1.1522,0.41929 -2.60941,0.81577 -4.37314,1.1843 l -3.39625,0.70922 -2.42993,-11.42369 3.99579,-0.83488 c 1.32281,-0.27637 2.4925,-0.48245 3.50559,-0.61483 0.50453,-0.0747 0.98357,-0.11434 1.43889,-0.1152 z m -78.22658,7.94767 c -2.85874,0.0224 -5.6989,0.3264 -8.51706,0.91541 -5.61716,1.17359 -9.94832,3.38883 -12.99957,6.64459 -3.0361,3.23275 -4.13505,6.8239 -3.29397,10.77388 0.62677,2.94353 1.93922,5.24808 3.93583,6.91363 2.01175,1.64253 4.94133,2.6689 8.79217,3.07428 1.68122,0.18427 3.45204,0.26134 5.30774,0.23067 1.87082,-0.0544 3.65175,-0.0608 5.343,-0.016 1.61053,0.0405 2.88082,0.32256 3.81241,0.84191 0.94677,0.49643 1.51937,1.20749 1.71751,2.13803 0.2143,1.00649 0.0981,1.82353 -0.34912,2.4524 -0.42752,0.62496 -1.02784,1.19726 -1.79862,1.71534 -0.6335,0.41002 -1.48489,0.78612 -2.55337,1.12836 -1.06845,0.34219 -1.9388,0.58304 -2.60978,0.7232 -2.60729,0.54475 -5.43122,0.63072 -8.47474,0.25493 -3.02438,-0.37973 -5.86922,-1.23328 -8.53473,-2.56071 l -1.20614,0.25174 2.16541,10.16953 c 2.50273,0.46879 5.13296,0.74303 7.89287,0.821 2.77498,0.0555 5.93672,-0.2896 9.48338,-1.03049 6.13476,-1.28176 10.70715,-3.59485 13.71902,-6.94155 3.02697,-3.36972 4.0954,-7.1445 3.20579,-11.32238 -0.62272,-2.92453 -1.91567,-5.13254 -3.87588,-6.62717 -1.94509,-1.5176 -4.67029,-2.46515 -8.17498,-2.84367 -1.78112,-0.18325 -3.42982,-0.27658 -4.95155,-0.27605 -1.50252,-0.003 -3.07448,-0.002 -4.71523,0.003 -2.50155,0.007 -4.24566,-0.19243 -5.23369,-0.60085 -0.9921,-0.42742 -1.60944,-1.20275 -1.84801,-2.32319 -0.15765,-0.7407 -0.0277,-1.45265 0.38795,-2.13452 0.41141,-0.7008 0.96,-1.27075 1.64697,-1.7118 0.77078,-0.51807 1.59548,-0.92745 2.47225,-1.2297 0.89195,-0.32512 1.79538,-0.58326 2.71559,-0.77558 2.60728,-0.54473 5.25888,-0.61236 7.94927,-0.20266 2.70551,0.38677 5.06513,1.08228 7.08169,2.08908 l 1.17793,-0.24457 -2.08077,-9.77127 c -2.18687,-0.39595 -4.71569,-0.57259 -7.58955,-0.52747 z" fill="#c4cfd6" />
</svg>