<svg width="192" height="192" viewBox="0 0 192 192" fill="none" xml:space="preserve" xmlns:xlink="http://www.w3.org/1999/xlink" xmlns="http://www.w3.org/2000/svg">
    <linearGradient id="linearGradient1127">
        <stop style="stop-color:#c80000;stop-opacity:1;" offset="0" id="stop1123" />
        <stop style="stop-color:#ff8686;stop-opacity:1;" offset="1" id="stop1125" />
    </linearGradient>
    <linearGradient xlink:href="#linearGradient1127" id="linearGradient1129" x1="126.03729" y1="766.23578" x2="632.42773" y2="262.14044" gradientUnits="userSpaceOnUse" gradientTransform="matrix(0.37985044,0,0,0.37886636,-47.87532,-98.984348)" />
    <circle cx="96" cy="96" r="96" fill="url(#linearGradient1129)" />
    <path d="m 47.092316,159.22553 99.371404,0.0476 0.004,-7.41268 c 0.0728,-3.78196 -3.23192,-7.12784 -8.4638,-7.22708 l -5.8376,-0.032 -0.028,-54.040558 c -0.024,-1.16936 3.56392,0.0988 3.80168,2.11396 1.47124,17.467718 2.3076,36.945278 11.90712,37.962558 5.39228,-0.61888 8.3612,-4.66744 8.62724,-17.68088 0.2892,-6.96008 -2.03564,-16.263638 -5.37468,-21.996718 -1.48988,-2.7602 -1.8438,-5.52036 -2.02072,-8.28052 -0.73972,-2.549 4.35316,-17.56144 4.95932,-22.80016 0.2956,-4.17004 -2.90044,-8.93172 -6.74512,-10.65788 -4.46488,-1.9654 -7.87,-3.28336 -12.64656,-4.42372 -1.00472,-0.2036 -1.19696,2.76364 -0.49932,2.93304 l 5.9864,1.9184 1.55216,7.69548 8.99348,4.0882 c -1.31964,7.16 -5.01284,14.27608 -4.84204,21.43612 0.02,4.05072 1.20752,7.4462 3.247,10.8818 2.79624,4.92204 4.4164,13.628758 4.2722,19.959078 -0.2144,9.50448 -1.87368,13.96536 -5.90764,13.36624 -5.65032,-0.93844 -6.19368,-22.02028 -8.5174,-36.079758 -0.48272,-2.7252 -4.09144,-4.46916 -6.79544,-4.66316 l -0.028,-52.38744 c 0.066,-4.24164 -2.63556,-8.1928 -6.76668,-8.14448 l -57.363244,-0.02 c -5.03672,0.012 -6.63264,4.81104 -6.57472,8.03928 l -0.0916,110.811358 -7.26456,-0.0876 c -3.52584,-0.1056 -6.9588,3.1216 -6.99348,6.1676 z" fill="#f4d202" />
</svg>
