<svg width="512" height="512" viewBox="0 0 512 512" fill="none" xml:space="preserve" xmlns:xlink="http://www.w3.org/1999/xlink" xmlns="http://www.w3.org/2000/svg">
    <linearGradient id="linearGradient1127">
        <stop style="stop-color:#c80000;stop-opacity:1;" offset="0" id="stop1123" />
        <stop style="stop-color:#ff8686;stop-opacity:1;" offset="1" id="stop1125" />
    </linearGradient>
    <linearGradient xlink:href="#linearGradient1127" id="linearGradient1129" x1="126.03729" y1="766.23578" x2="632.42773" y2="262.14044" gradientUnits="userSpaceOnUse" gradientTransform="matrix(1.0129345,0,0,1.0103103,-127.66752,-263.95826)" />
    <circle cx="256" cy="256" r="256" fill="url(#linearGradient1129)" />
    <path d="m 125.57951,424.60141 264.99041,0.12694 0.0107,-19.76715 c 0.19413,-10.08523 -8.61846,-19.00757 -22.57014,-19.27221 l -15.56693,-0.0853 -0.0747,-144.10815 c -0.064,-3.11829 9.50379,0.26347 10.13782,5.63723 3.9233,46.58058 6.1536,98.52074 31.75232,101.23348 14.37941,-1.65034 22.29653,-12.4465 23.00597,-47.14901 0.7712,-18.56021 -5.42837,-43.3697 -14.33248,-58.65791 -3.97301,-7.36054 -4.9168,-14.72096 -5.38859,-22.08139 -1.97258,-6.79733 11.60843,-46.83051 13.22486,-60.80043 0.78826,-11.1201 -7.73451,-23.81792 -17.98699,-28.42101 -11.90635,-5.24107 -20.98667,-8.75563 -33.72416,-11.79659 -2.67925,-0.54293 -3.19189,7.36971 -1.33152,7.82144 l 15.96373,5.11574 4.1391,20.52128 23.98261,10.90186 c -3.51904,19.09334 -13.36757,38.06955 -12.91211,57.16299 0.0533,10.80192 3.22006,19.85653 8.65867,29.01813 7.45664,13.12544 11.77707,36.34336 11.39253,53.22421 -0.57173,25.34528 -4.99648,37.24096 -15.7537,35.64331 -15.06752,-2.50251 -16.51648,-58.72075 -22.71307,-96.21269 -1.28725,-7.2672 -10.91051,-11.91776 -18.12117,-12.43509 L 352.288,90.521205 c 0.176,-11.31104 -7.02816,-21.847466 -18.04448,-21.718613 l -152.96865,-0.05333 c -13.43125,0.032 -17.68704,12.82944 -17.53259,21.43808 l -0.24426,295.496948 -19.37216,-0.2336 c -9.40224,-0.2816 -18.5568,8.32427 -18.64928,16.44694 z" fill="#f4d202" />
</svg>
