<svg width="192" height="170" viewBox="0 0 192 170" fill="none" xml:space="preserve" xmlns="http://www.w3.org/2000/svg">
  <path d="m 115.09077,26.759496 c -0.34033,0.005 -0.71056,0.120268 -1.0781,0.329492 l -15.155339,8.832727 -0.02681,7.62128 4.216889,-2.481517 0.0277,-2.497214 9.53282,-4.778058 0.0285,102.525204 -1.84374,-0.86626 0.0469,4.98038 4.32411,2.4617 3.93375,-2.66319 -0.0427,-4.8301 -1.9317,1.0818 0.10221,-102.626775 9.57721,5.041496 -0.031,1.97861 4.50254,2.659065 -0.0159,-7.383456 -15.26507,-9.055692 c -0.25096,-0.229536 -0.56186,-0.334579 -0.90219,-0.329492 z m 22.92651,13.260648 0.003,89.352086 6.64198,-3.71195 0.26639,-3.82097 c 0.0316,-0.35153 -1.13453,-0.77659 -1.38218,-0.59458 l -0.66931,1.20732 -0.0938,-27.106792 18.73308,-11.047516 0.0561,2.741652 3.98904,-2.51208 0.0687,-7.639453 -23.03039,13.188809 0.0787,-42.085928 18.68868,10.38192 0.0905,2.250298 3.12958,2.197449 c 0.33367,0.243278 1.4687,-0.274754 1.44417,-0.609438 l -0.0176,-6.290922 z m -60.027435,8.347987 c -0.399371,-1.17e-4 -0.804075,0.117439 -1.29087,0.351787 L 67.38228,53.962079 C 66.956828,47.806591 59.781574,48.593351 52.789867,50.197278 L 0,60.964017 c 5.7749528,9.679072 9.0612683,13.016259 15.220677,13.380391 1.012499,5.032495 5.364391,8.291913 10.837087,8.910354 2.236051,7.216591 9.023283,9.97676 15.028848,8.647749 L 51.11115,89.505224 55.07841,83.358809 40.179401,87.064164 C 37.543594,87.6544 34.353602,87.649863 30.907944,82.8047 l 19.904155,-3.866382 4.468196,-6.411489 -26.829273,5.715343 C 26.212766,78.696314 22.64239,78.040745 21.009895,73.80516 l 29.72765,-5.998589 4.897087,-5.606333 -37.029721,7.634493 C 13.044092,70.954797 9.831063,68.002996 7.6547355,63.445537 L 52.873635,54.490594 c 6.245812,-1.271962 10.979906,-1.691095 10.955201,4.666577 l 0.09298,54.366359 13.076209,7.64441 c 0.571905,0.37146 1.308506,0.40515 1.96269,-0.0339 l 12.528368,-7.49245 0.08628,-58.065112 -12.325646,-6.852466 c -0.466226,-0.237626 -0.860509,-0.355802 -1.259876,-0.35592 z m -0.0059,4.664929 c 0.25521,0.0019 0.522409,0.0684 0.81339,0.193241 l 8.308125,5.114982 0.106388,53.149967 -9.31251,5.16123 -9.622451,-5.21656 0.08126,-53.023618 8.883615,-5.183527 c 0.243488,-0.134439 0.486975,-0.197498 0.742185,-0.195715 z" fill="#0f85cf" />
  <path d="m 116.54582,0 -0.0143,2.9068068 2.72498,0.013214 -0.0519,10.5809392 -2.72498,-0.01321 -0.0143,2.906805 9.73889,0.04624 0.0143,-2.906806 -2.72498,-0.01239 0.0519,-10.5817617 2.72497,0.013211 0.0151,-2.90680488 z m -11.69571,0.59870641 -4.1993,0.86213049 1.24144,5.8747214 -6.199675,1.2725538 -1.241449,-5.8747246 -4.198459,0.8621376 3.390098,16.0501899 4.199295,-0.86213 -1.49442,-7.070478 6.20052,-1.273377 1.49358,7.071301 4.19847,-0.862135 z m 38.5543,3.09590989 c -0.81979,0.00447 -1.59416,0.1341009 -2.32373,0.3889524 -1.01261,0.353268 -1.93191,0.9193786 -2.75765,1.6978396 -0.82574,0.778458 -1.52834,1.7513341 -2.1076,2.9183649 -0.62181,1.2527482 -0.98566,2.4455208 -1.09234,3.5790058 -0.1,1.136713 0.029,2.187483 0.387,3.152893 0.35807,0.965413 0.9245,1.835598 1.7005,2.610346 0.78269,0.777977 1.72949,1.434795 2.83974,1.970354 0.74909,0.36134 1.3554,0.609264 1.81944,0.743218 0.46406,0.13395 0.97515,0.248954 1.53213,0.346005 0.4269,0.07517 0.84677,0.122556 1.25987,0.142038 0.4131,0.01948 0.84791,0.03784 1.30427,0.05368 l 1.7474,-3.521202 -0.40124,-0.193235 c -0.25913,0.07113 -0.58365,0.14749 -0.97256,0.229572 -0.3889,0.08208 -0.79451,0.139467 -1.21715,0.17259 -0.50573,0.05024 -1.02367,0.03378 -1.55389,-0.05037 -0.52353,-0.08093 -1.01955,-0.234959 -1.48773,-0.460795 -0.48825,-0.235516 -0.94493,-0.549447 -1.37128,-0.943062 -0.42308,-0.400209 -0.74875,-0.880752 -0.97675,-1.440191 -0.22456,-0.549616 -0.31653,-1.198398 -0.27642,-1.947229 0.0468,-0.745604 0.29909,-1.579917 0.75726,-2.50299 0.43854,-0.8835143 0.93177,-1.5773774 1.48019,-2.0810088 0.55509,-0.5004094 1.12355,-0.8434291 1.70468,-1.0289455 0.60776,-0.1889814 1.1966,-0.2482246 1.76666,-0.1775446 0.57334,0.064089 1.13111,0.2275446 1.67285,0.4888728 0.48825,0.2355139 0.90969,0.5287638 1.26574,0.8802975 0.35606,0.3515369 0.66586,0.7214407 0.92899,1.1098707 0.25643,0.3852189 0.47127,0.7543109 0.64418,1.1073959 0.1796,0.356311 0.32352,0.658975 0.43224,0.907552 l 0.44146,0.213054 1.77253,-3.5707455 c -0.20859,-0.264271 -0.45965,-0.5602871 -0.75223,-0.8893826 -0.28262,-0.3324667 -0.61677,-0.6701714 -1.00271,-1.0116028 -0.37241,-0.3185698 -0.79685,-0.6327582 -1.27244,-0.9438877 -0.46562,-0.3144973 -1.01231,-0.6232775 -1.64101,-0.9265439 -1.13701,-0.5484604 -2.2754,-0.8774652 -3.41523,-0.9860027 -0.28329,-0.026332 -0.56191,-0.038649 -0.83517,-0.037161 z m -66.235496,5.3643805 -10.553115,5.6913942 7.982272,14.382908 10.553108,-5.691393 -1.543842,-2.782111 -6.809512,3.673148 -1.973584,-3.555058 6.32031,-3.408064 -1.543849,-2.782114 -6.320306,3.408893 -1.377146,-2.483171 6.809512,-3.67232 z m 87.667586,3.8647302 -10.17281,12.96997 9.4901,7.233158 1.96771,-2.508771 -6.09665,-4.646761 8.20426,-10.461199 z m -107.295304,7.744327 -3.494805,2.618602 3.868414,11.567766 -10.270819,-6.770707 -3.583601,2.684669 14.8923,9.435553 3.823136,-2.865578 z m 127.481754,8.095291 -13.54699,9.509056 6.97621,9.660175 2.62111,-1.839052 -4.50254,-6.233942 3.34821,-2.350222 4.17836,5.785536 2.62027,-1.839876 -4.17836,-5.784704 2.33797,-1.641691 4.50254,6.233943 L 192,38.423519 Z m -5.53373,94.332205 -9.61072,7.13158 10.00276,13.0988 9.60988,-7.13242 -1.93419,-2.53355 -6.20218,4.60301 -2.472,-3.23712 5.75571,-4.27185 -1.93419,-2.53354 -5.75572,4.27183 -1.72645,-2.26104 6.20219,-4.60217 z m -120.208995,3.50881 c -1.144339,0.0375 -2.12916,0.46018 -2.953669,1.26677 -0.819225,0.80143 -1.29081,1.68726 -1.415681,2.65742 -0.114345,0.97018 0.159803,2.10239 0.82344,3.39733 0.287381,0.56685 0.627656,1.13919 1.0203,1.71683 0.403166,0.57767 0.772549,1.13694 1.107409,1.67801 0.319174,0.51507 0.491246,0.97272 0.516015,1.37248 0.03529,0.3998 -0.07693,0.72604 -0.33591,0.97939 -0.280121,0.27404 -0.567161,0.40541 -0.861975,0.39391 -0.28956,-0.006 -0.59805,-0.0777 -0.923959,-0.21387 -0.262815,-0.11519 -0.558949,-0.30549 -0.88962,-0.57146 -0.330671,-0.26596 -0.587936,-0.48984 -0.771506,-0.6722 -0.71331,-0.70861 -1.323641,-1.58048 -1.830334,-2.6153 -0.50145,-1.02961 -0.812812,-2.10029 -0.934856,-3.21152 l -0.330881,-0.32784 -2.82969,2.7689 c 0.365126,0.88375 0.819611,1.76718 1.363747,2.65162 0.55467,0.88449 1.317401,1.80913 2.287706,2.77303 1.678373,1.66731 3.36666,2.63118 5.066299,2.89195 1.710173,0.2608 3.147105,-0.17716 4.309871,-1.31468 0.813942,-0.79624 1.259637,-1.65618 1.336943,-2.57979 0.08784,-0.92357 -0.168926,-1.97567 -0.76983,-3.1562 -0.308318,-0.59806 -0.619129,-1.13653 -0.933176,-1.61525 -0.308802,-0.4735 -0.633994,-0.96799 -0.974224,-1.48314 -0.518198,-0.78572 -0.813251,-1.37575 -0.885431,-1.77051 -0.06689,-0.39992 0.05591,-0.75277 0.367743,-1.05783 0.206127,-0.20166 0.461903,-0.30706 0.767318,-0.31628 0.310699,-0.0144 0.608299,0.0412 0.892129,0.1668 0.325912,0.13619 0.627311,0.31135 0.905535,0.52521 0.288753,0.2139 0.559121,0.44606 0.810877,0.69615 0.713306,0.7086 1.281825,1.5277 1.704683,2.45839 0.433387,0.93074 0.695917,1.81703 0.787417,2.65825 l 0.322511,0.32041 2.719114,-2.65989 c -0.323449,-0.76942 -0.789139,-1.60215 -1.396417,-2.49721 -0.596749,-0.89503 -1.280479,-1.72552 -2.051479,-2.49143 -1.536761,-1.52664 -3.144075,-2.43579 -4.822534,-2.72761 -0.416985,-0.0729 -0.816442,-0.10335 -1.197885,-0.0909 z m 103.416835,10.3299 c -0.3335,0.0636 -0.71573,0.14988 -1.14595,0.25764 -0.42876,0.0975 -0.88505,0.2378 -1.36877,0.42198 -0.45693,0.18268 -0.93376,0.41286 -1.43076,0.68955 -0.49554,0.2664 -1.02303,0.60674 -1.58239,1.02151 -1.01159,0.75013 -1.82498,1.60119 -2.44016,2.55336 -0.60923,0.94775 -0.98088,1.92612 -1.11496,2.93488 -0.13998,1.04988 -0.0452,2.11396 0.28398,3.19254 0.32916,1.07859 0.88981,2.13689 1.68206,3.17519 0.85043,1.11457 1.76376,1.97601 2.74006,2.58392 0.98225,0.60349 1.99053,0.9667 3.0257,1.09005 1.03518,0.12335 2.0797,0.0197 3.1321,-0.31051 1.05835,-0.33471 2.08063,-0.86792 3.06843,-1.60038 0.66654,-0.49411 1.16618,-0.91488 1.49777,-1.26182 0.3316,-0.34693 0.66734,-0.74302 1.00774,-1.18832 0.26161,-0.34097 0.49529,-0.68889 0.70029,-1.04299 0.20501,-0.35409 0.41782,-0.72767 0.63916,-1.12143 l -2.38991,-3.13226 -0.35767,0.26428 c -0.0532,0.25993 -0.13066,0.57984 -0.23288,0.95875 -0.10222,0.3789 -0.23445,0.76153 -0.39622,1.14786 -0.184,0.4671 -0.43398,0.91427 -0.75057,1.34192 -0.31064,0.42324 -0.67412,0.78943 -1.09066,1.0983 -0.43431,0.32223 -0.92675,0.58107 -1.47599,0.77708 -0.55372,0.19015 -1.1349,0.25827 -1.74406,0.2048 -0.59874,-0.052 -1.22769,-0.26507 -1.88645,-0.63999 -0.65282,-0.37933 -1.2925,-0.9798 -1.91914,-1.80106 -0.59978,-0.78607 -1.00225,-1.53425 -1.20877,-2.24452 -0.20057,-0.71468 -0.25343,-1.36904 -0.15748,-1.96374 0.10484,-0.61969 0.31833,-1.16467 0.64082,-1.63343 0.31802,-0.47463 0.7184,-0.89037 1.2004,-1.24778 0.4343,-0.32223 0.89114,-0.56015 1.37045,-0.71349 0.47931,-0.15334 0.95438,-0.25718 1.4249,-0.31215 0.46456,-0.0506 0.89575,-0.0718 1.29338,-0.0636 0.40358,0.004 0.74207,0.015 1.01611,0.0322 l 0.39277,-0.29163 z m -85.628669,2.86799 -9.770715,13.26726 9.73386,6.96724 1.889809,-2.56657 -6.281771,-4.49564 2.41503,-3.27924 5.829431,4.17275 1.889809,-2.56575 -5.829428,-4.17276 1.687092,-2.28992 6.280938,4.49646 1.889809,-2.56658 z m 66.921559,7.61302 -8.41451,4.83505 1.48521,2.51124 2.35388,-1.35264 5.40556,9.14156 -2.35388,1.35266 1.48437,2.51124 8.41451,-4.83504 -1.48521,-2.51124 -2.35389,1.35265 -5.40556,-9.14075 2.35389,-1.35348 z m -50.182999,1.58553 -4.755521,15.71079 4.088723,1.20237 1.743221,-5.76076 1.894834,0.55741 2.601003,7.03909 5.020229,1.47653 -3.28204,-8.29679 c 1.1601,-0.1873 2.12212,-0.56675 2.88581,-1.13878 0.77084,-0.5699 1.33161,-1.43487 1.6829,-2.59547 0.25549,-0.84408 0.28909,-1.59711 0.10053,-2.25773 -0.1793,-0.66556 -0.51567,-1.26233 -1.00857,-1.79033 -0.48577,-0.52591 -1.05124,-0.94123 -1.69715,-1.24612 -0.6459,-0.3049 -1.43968,-0.59582 -2.38152,-0.87288 z m 3.213345,4.09348 1.487727,0.43767 c 0.492326,0.14483 0.919136,0.28637 1.281652,0.42364 0.364635,0.13024 0.669705,0.29199 0.913905,0.48639 0.3506,0.27932 0.56523,0.5837 0.64418,0.91334 0.079,0.32962 0.0589,0.69202 -0.0603,1.08591 -0.13413,0.44314 -0.30959,0.77842 -0.52607,1.00583 -0.2072,0.22247 -0.48627,0.40019 -0.837676,0.53429 -0.367808,0.13693 -0.782419,0.17253 -1.243958,0.1057 -0.461542,-0.0668 -1.020607,-0.19667 -1.677041,-0.38978 l -1.263225,-0.3716 z m 32.782674,0.4385 -4.38945,0.0289 -3.94129,11.54381 -4.10046,-11.48931 -4.50086,0.0297 6.17706,16.35409 4.80327,-0.0322 z" fill="#c4cfd6" />
</svg>