<svg width="48" height="42" viewBox="0 0 48 42" fill="none" xml:space="preserve" xmlns="http://www.w3.org/2000/svg">
  <path d="m 28.772693,6.6111785 c -0.08508,0.00124 -0.17764,0.029713 -0.269526,0.081404 l -3.788834,2.1822061 -0.0067,1.8829074 1.054222,-0.613082 0.0069,-0.6169595 2.383205,-1.180463 0.0071,25.3297895 -0.460935,-0.214017 0.01173,1.230448 1.081028,0.608186 0.983437,-0.657965 -0.01067,-1.193321 -0.482925,0.267269 0.02555,-25.3548843 2.394302,1.2455478 -0.0078,0.4888335 1.125635,0.656946 -0.004,-1.8241499 -3.816152,-2.2372916 c -0.06274,-0.056709 -0.140465,-0.082661 -0.225548,-0.081404 z m 5.731627,3.2761645 7.5e-4,22.07525 1.660495,-0.91707 0.0666,-0.944007 c 0.0079,-0.08685 -0.283632,-0.191863 -0.345545,-0.146896 l -0.167327,0.298279 -0.02345,-6.696981 4.68327,-2.72939 0.01403,0.677351 0.99726,-0.620633 0.01718,-1.887396 -5.757598,3.258416 0.01967,-10.397713 4.67217,2.564948 0.02262,0.555956 0.782395,0.5429 c 0.08342,0.0601 0.367175,-0.06788 0.361043,-0.150567 l -0.0044,-1.55423 z M 19.497461,11.94979 c -0.09984,-2.9e-5 -0.201018,0.02901 -0.322717,0.08691 l -2.329174,1.295121 c -0.106363,-1.52077 -1.900176,-1.326394 -3.648103,-0.930129 L 0,15.061718 c 1.4437382,2.391304 2.2653171,3.215786 3.8051693,3.305749 0.2531247,1.243324 1.3410977,2.048592 2.7092717,2.201384 0.5590127,1.782925 2.2558208,2.46485 3.757212,2.136506 l 2.506135,-0.592272 0.991815,-1.518528 -3.724753,0.915442 c -0.6589515,0.145823 -1.4564495,0.144702 -2.317864,-1.05234 l 4.976039,-0.955225 1.117049,-1.584017 -6.7073185,1.412028 C 6.5531915,19.442644 5.6605975,19.28068 5.2524737,18.23424 L 12.684386,16.752234 13.908658,15.367139 4.6512277,17.25331 C 3.261023,17.530032 2.4577658,16.800763 1.9136839,15.674801 l 11.3047251,-2.2124 c 1.561453,-0.314251 2.744976,-0.417801 2.7388,1.15292 l 0.02324,13.431707 3.269052,1.888621 c 0.142976,0.09177 0.327127,0.100096 0.490673,-0.0084 l 3.132092,-1.851079 0.02157,-14.345518 -3.081412,-1.692963 c -0.116556,-0.05871 -0.215127,-0.0879 -0.314969,-0.08793 z m -0.0015,1.152513 c 0.0638,4.69e-4 0.130602,0.0169 0.203348,0.04774 l 2.077031,1.263703 0.0266,13.131186 -2.328128,1.275129 -2.405612,-1.288799 0.02032,-13.09997 2.220904,-1.280638 c 0.06087,-0.03321 0.121743,-0.0488 0.185546,-0.04835 z" fill="#0f85cf" />
  <path d="m 29.136455,0 -0.0036,0.71815323 0.681245,0.003265 -0.01298,2.61411797 -0.681245,-0.00326 -0.0036,0.7181527 2.434722,0.011424 0.0036,-0.718153 -0.681245,-0.00306 0.01298,-2.61432113 0.681243,0.003264 0.0038,-0.71815275 z M 26.212527,0.1479159 25.162703,0.36091313 25.473062,1.8123169 23.923144,2.1267129 23.612781,0.67530841 22.563167,0.8883074 23.410691,4.8536537 24.460515,4.6406566 24.08691,2.8938303 25.63704,2.5792309 26.010435,4.3262605 27.060052,4.1132622 Z m 9.638575,0.76487289 c -0.204947,0.001104 -0.39854,0.0331308 -0.580932,0.0960942 -0.253153,0.087278 -0.482978,0.2271409 -0.689413,0.4194669 -0.206435,0.1923251 -0.382085,0.4326831 -0.5269,0.7210087 -0.155452,0.309503 -0.246415,0.6041883 -0.273085,0.8842262 -0.025,0.2808353 0.0072,0.5404376 0.09675,0.778951 0.08952,0.2385141 0.231125,0.4535013 0.425125,0.6449099 0.195673,0.1922063 0.432373,0.3544792 0.709935,0.486794 0.187273,0.089272 0.33885,0.1505242 0.45486,0.1836188 0.116015,0.033093 0.243788,0.061506 0.383033,0.085483 0.106725,0.018571 0.211692,0.030278 0.314967,0.035091 0.103275,0.00481 0.211978,0.00935 0.326068,0.013262 L 36.92836,4.39175 36.82805,4.34401 C 36.76327,4.361584 36.682137,4.380449 36.58491,4.400728 36.48768,4.421007 36.386282,4.435185 36.280622,4.443367 36.15419,4.45578 36.024705,4.4517184 35.89215,4.4309229 35.761267,4.4109294 35.637262,4.3728751 35.520217,4.3170802 35.398155,4.2588939 35.283985,4.1813344 35.177397,4.0840881 35.071627,3.9852129 34.99021,3.8664903 34.93321,3.7282758 34.87707,3.5924882 34.854077,3.4322006 34.864105,3.247195 c 0.0117,-0.1842083 0.07477,-0.3903329 0.189315,-0.6183866 0.109635,-0.2182802 0.232942,-0.3897054 0.370047,-0.5141322 0.138773,-0.1236307 0.280888,-0.2083769 0.42617,-0.2542104 0.15194,-0.046689 0.29915,-0.061326 0.441665,-0.043864 0.143335,0.015834 0.282778,0.056217 0.418213,0.1207805 0.122062,0.058186 0.227422,0.1306359 0.316435,0.2174855 0.08901,0.08685 0.166465,0.1782386 0.232247,0.2742038 0.06411,0.095172 0.117818,0.1863594 0.161045,0.2735922 0.0449,0.08803 0.08088,0.1628059 0.10806,0.224219 L 37.637667,2.9795198 38.0808,2.0973345 C 38.028652,2.0320439 37.965887,1.9589104 37.892742,1.8776043 37.822087,1.7954653 37.73855,1.7120324 37.642065,1.6276786 37.548962,1.548973 37.442852,1.4713499 37.323955,1.3944825 37.20755,1.3167831 37.070877,1.2404961 36.913702,1.1655713 36.62945,1.0300692 36.344852,0.94878554 36.059895,0.92197036 c -0.07082,-0.006506 -0.140478,-0.009548 -0.208793,-0.009182 z M 19.292228,2.2381081 16.65395,3.6442192 18.649518,7.1976482 21.287795,5.7915375 20.901834,5.1041915 19.199456,6.0116764 18.70606,5.1333668 20.286138,4.2913733 19.900175,3.6040266 18.320099,4.4462248 17.975812,3.8327347 19.67819,2.9254544 Z M 41.209125,3.1929251 38.665922,6.3972749 41.038448,8.1842928 41.530375,7.564478 40.006213,6.4164532 42.057278,3.8319181 Z M 14.385299,5.106232 13.511598,5.7531816 14.478701,8.611104 11.910997,6.9383388 11.015096,7.6016109 14.738171,9.9327505 15.693955,9.2247834 Z M 46.255737,7.1062477 42.86899,9.4555471 44.613042,11.842182 45.26832,11.387827 44.142685,9.8476746 44.979737,9.2670308 46.024327,10.6964 46.679395,10.241842 45.634805,8.8126781 46.219297,8.4070834 47.344932,9.947236 48,9.4928822 Z m -1.383432,23.3056343 -2.40268,1.761922 2.50069,3.236179 2.40247,-1.76213 -0.483548,-0.625936 -1.550545,1.137216 -0.618,-0.79976 1.438928,-1.0554 -0.483548,-0.625935 -1.43893,1.055396 -0.431612,-0.558611 1.550547,-1.137009 z m -30.052249,0.866884 c -0.286085,0.0093 -0.53229,0.113692 -0.738417,0.312967 -0.204806,0.198001 -0.322703,0.416853 -0.35392,0.65654 -0.02859,0.239692 0.03995,0.519415 0.20586,0.839342 0.07184,0.140045 0.156914,0.281448 0.255075,0.424158 0.100791,0.142719 0.193137,0.280891 0.276852,0.414568 0.07979,0.127252 0.122811,0.240319 0.129004,0.339084 0.0088,0.09877 -0.01923,0.179375 -0.08398,0.241967 -0.07003,0.0677 -0.14179,0.10016 -0.215494,0.09732 -0.07239,-0.0015 -0.149512,-0.01919 -0.230989,-0.05284 -0.0657,-0.02846 -0.139738,-0.07547 -0.222405,-0.141184 -0.08267,-0.06571 -0.146984,-0.12102 -0.192877,-0.166074 -0.178327,-0.175068 -0.33091,-0.390472 -0.457583,-0.646133 -0.125363,-0.254374 -0.203203,-0.518896 -0.233714,-0.793436 l -0.08272,-0.081 -0.707422,0.684082 c 0.09128,0.21834 0.204903,0.436598 0.340937,0.655107 0.138667,0.218522 0.32935,0.446963 0.571926,0.685103 0.419593,0.411924 0.841665,0.650058 1.266575,0.714483 0.427543,0.06443 0.786776,-0.04377 1.077468,-0.324804 0.203485,-0.196718 0.314909,-0.409175 0.334235,-0.63736 0.02196,-0.228177 -0.04223,-0.488108 -0.192457,-0.779768 -0.07708,-0.147757 -0.154782,-0.280791 -0.233294,-0.399063 -0.0772,-0.116983 -0.158499,-0.239151 -0.243556,-0.366424 -0.12955,-0.194119 -0.203313,-0.339891 -0.221358,-0.43742 -0.01672,-0.0988 0.01398,-0.185979 0.09194,-0.261347 0.05153,-0.04983 0.115476,-0.07587 0.191829,-0.07814 0.07768,-0.0036 0.152075,0.01018 0.223033,0.04121 0.08148,0.03365 0.156827,0.07692 0.226383,0.129758 0.07219,0.05284 0.139781,0.110203 0.20272,0.17199 0.178326,0.175066 0.320456,0.377432 0.42617,0.607368 0.108347,0.229948 0.17398,0.448914 0.196855,0.656745 l 0.08063,0.07916 0.679779,-0.65715 c -0.08086,-0.190092 -0.197285,-0.395826 -0.349104,-0.616958 -0.149188,-0.221126 -0.32012,-0.426306 -0.51287,-0.615531 -0.38419,-0.377171 -0.786019,-0.601784 -1.205633,-0.673881 -0.104247,-0.01802 -0.204111,-0.02554 -0.299472,-0.02246 z m 25.854209,2.552097 c -0.08337,0.01571 -0.178933,0.03703 -0.286488,0.06365 -0.10719,0.02408 -0.221262,0.05875 -0.342192,0.104254 -0.114233,0.04513 -0.23344,0.102001 -0.35769,0.170359 -0.123885,0.06582 -0.255758,0.149901 -0.395598,0.252374 -0.252897,0.185327 -0.456245,0.395588 -0.61004,0.630831 -0.152307,0.234151 -0.24522,0.475865 -0.27874,0.725089 -0.035,0.259382 -0.0113,0.522273 0.071,0.788746 0.08229,0.266475 0.222452,0.527938 0.420515,0.784459 0.212607,0.275366 0.44094,0.488192 0.685015,0.638381 0.245562,0.149099 0.497632,0.238833 0.756425,0.269308 0.258795,0.03048 0.519925,0.0048 0.783025,-0.07672 0.264587,-0.0827 0.520157,-0.214428 0.767107,-0.395389 0.166635,-0.122073 0.291545,-0.226029 0.374443,-0.311744 0.0829,-0.08571 0.166835,-0.18357 0.251935,-0.293585 0.0654,-0.08424 0.123822,-0.170196 0.175072,-0.25768 0.05125,-0.08748 0.104455,-0.179778 0.15979,-0.27706 l -0.597477,-0.773853 -0.08942,0.06529 c -0.0133,0.06422 -0.03267,0.143255 -0.05822,0.236869 -0.02555,0.09362 -0.05861,0.188142 -0.09905,0.283589 -0.046,0.115402 -0.108495,0.225878 -0.187642,0.331534 -0.07766,0.104565 -0.16853,0.195035 -0.272665,0.271345 -0.108578,0.07961 -0.231688,0.143558 -0.368998,0.191985 -0.13843,0.04698 -0.283725,0.06381 -0.436015,0.0506 -0.149685,-0.01285 -0.306922,-0.06549 -0.471612,-0.158116 -0.163205,-0.09371 -0.323125,-0.242068 -0.479785,-0.444968 -0.149945,-0.194205 -0.250563,-0.37905 -0.302193,-0.554529 -0.05014,-0.176568 -0.06336,-0.338234 -0.03937,-0.48516 0.02621,-0.1531 0.07958,-0.287742 0.160205,-0.403553 0.0795,-0.117263 0.1796,-0.219975 0.3001,-0.308276 0.108575,-0.07961 0.222785,-0.138391 0.342613,-0.176275 0.119827,-0.03789 0.238595,-0.06354 0.356225,-0.07712 0.11614,-0.0125 0.223937,-0.01774 0.323345,-0.01571 0.100895,9.89e-4 0.185517,0.0038 0.254027,0.008 l 0.09819,-0.07205 z m -21.407167,0.708562 -2.442679,3.277798 2.433465,1.721321 0.472452,-0.634094 -1.570443,-1.110689 0.603758,-0.810167 1.457358,1.030916 0.472452,-0.633892 -1.457357,-1.030918 0.421773,-0.565746 1.570234,1.110892 0.472453,-0.634097 z m 16.730389,1.880867 -2.103627,1.194543 0.371302,0.620425 0.58847,-0.334182 1.35139,2.258506 -0.58847,0.334187 0.371093,0.620425 2.103628,-1.194541 -0.371303,-0.620425 -0.588472,0.334184 -1.351391,-2.258305 0.588473,-0.33439 z m -12.545749,0.39172 -1.188881,3.881494 1.022181,0.297057 0.435805,-1.423249 0.473709,0.137713 0.650251,1.739072 1.255057,0.36479 -0.82051,-2.049798 c 0.290025,-0.04627 0.53053,-0.140021 0.721453,-0.281346 0.19271,-0.140799 0.332902,-0.354497 0.420725,-0.641235 0.06387,-0.208536 0.07227,-0.39458 0.02513,-0.557792 -0.04483,-0.164433 -0.128917,-0.311871 -0.252142,-0.442318 -0.121443,-0.12993 -0.26281,-0.232539 -0.424288,-0.307865 -0.161475,-0.07533 -0.35992,-0.147203 -0.59538,-0.215653 z m 0.803336,1.011331 0.371932,0.10813 c 0.123081,0.03578 0.229784,0.07075 0.320413,0.104664 0.09116,0.03218 0.167426,0.07214 0.228476,0.120168 0.08765,0.06901 0.141307,0.144208 0.161045,0.225649 0.01975,0.08144 0.01473,0.17097 -0.01507,0.268285 -0.03353,0.109481 -0.0774,0.192315 -0.131517,0.248499 -0.0518,0.05496 -0.121568,0.09887 -0.20942,0.132001 -0.09195,0.03383 -0.195604,0.04262 -0.310989,0.02612 -0.115386,-0.0165 -0.255152,-0.04859 -0.41926,-0.0963 l -0.315807,-0.09181 z m 8.195669,0.108336 -1.097363,0.0071 -0.985322,2.852004 -1.025115,-2.838539 -1.125215,0.0073 L 29.761993,42 30.96281,41.992 Z" fill="#c4cfd6" />
</svg>