<svg width="48" height="48" viewBox="0 0 48 48" fill="none" xml:space="preserve" xmlns:xlink="http://www.w3.org/1999/xlink" xmlns="http://www.w3.org/2000/svg">
    <linearGradient id="linearGradient1127">
        <stop style="stop-color:#c80000;stop-opacity:1;" offset="0" id="stop1123" />
        <stop style="stop-color:#ff8686;stop-opacity:1;" offset="1" id="stop1125" />
    </linearGradient>
    <linearGradient xlink:href="#linearGradient1127" id="linearGradient1129" x1="126.03729" y1="766.23578" x2="632.42773" y2="262.14044" gradientUnits="userSpaceOnUse" gradientTransform="matrix(0.09496261,0,0,0.09471659,-11.96883,-24.746087)" />
    <circle cx="24" cy="24" r="24" fill="url(#linearGradient1129)" />
    <path d="m 11.773079,39.806383 24.84285,0.0119 10e-4,-1.85317 c 0.0182,-0.94549 -0.80798,-1.78196 -2.11595,-1.80677 l -1.4594,-0.008 -0.007,-13.51014 c -0.006,-0.29234 0.89098,0.0247 0.95042,0.52849 0.36781,4.36693 0.5769,9.23632 2.97678,9.49064 1.34807,-0.15472 2.0903,-1.16686 2.15681,-4.42022 0.0723,-1.74002 -0.50891,-4.06591 -1.34367,-5.49918 -0.37247,-0.69005 -0.46095,-1.38009 -0.50518,-2.07013 -0.18493,-0.63725 1.08829,-4.39036 1.23983,-5.70004 0.0739,-1.04251 -0.72511,-2.23293 -1.68628,-2.66447 -1.11622,-0.49135 -1.9675,-0.82084 -3.16164,-1.10593 -0.25118,-0.0509 -0.29924,0.69091 -0.12483,0.73326 l 1.4966,0.4796 0.38804,1.92387 2.24837,1.02205 c -0.32991,1.79 -1.25321,3.56902 -1.21051,5.35903 0.005,1.01268 0.30188,1.86155 0.81175,2.72045 0.69906,1.23051 1.1041,3.40719 1.06805,4.98977 -0.0536,2.37612 -0.46842,3.49134 -1.47691,3.34156 -1.41258,-0.23461 -1.54842,-5.50507 -2.12935,-9.01994 -0.12068,-0.6813 -1.02286,-1.11729 -1.69886,-1.16579 l -0.007,-13.0968599 c 0.0165,-1.06041 -0.65889,-2.0482 -1.69167,-2.03612 l -14.34081,-0.005 c -1.25918,0.003 -1.65816,1.20276 -1.64368,2.00982 l -0.0229,27.7028399 -1.81614,-0.0219 c -0.88146,-0.0264 -1.7397,0.7804 -1.74837,1.5419 z" fill="#f4d202" />
</svg>
