<svg width="225" height="225" viewBox="0 0 225 225" fill="none" xml:space="preserve" xmlns:xlink="http://www.w3.org/1999/xlink" xmlns="http://www.w3.org/2000/svg">
    <linearGradient id="linearGradient1127">
        <stop style="stop-color:#c80000;stop-opacity:1;" offset="0" id="stop1123" />
        <stop style="stop-color:#ff8686;stop-opacity:1;" offset="1" id="stop1125" />
    </linearGradient>
    <linearGradient xlink:href="#linearGradient1127" id="linearGradient1129" x1="126.03729" y1="766.23578" x2="632.42773" y2="262.14044" gradientUnits="userSpaceOnUse" gradientTransform="matrix(0.44513724,0,0,0.44398402,-56.103881,-115.99728)" />
    <path d="m 55.18632,186.59242 116.45086,0.0558 0.005,-8.68674 c 0.0853,-4.43198 -3.78741,-8.35293 -9.91851,-8.46923 l -6.84094,-0.0375 -0.0328,-63.32878 c -0.0281,-1.37034 4.17647,0.11578 4.4551,2.4773 1.72411,20.46998 2.70422,43.29525 13.95366,44.48737 6.31907,-0.72525 9.79827,-5.46966 10.11004,-20.71978 0.33891,-8.15634 -2.38551,-19.05895 -6.29845,-25.7774 -1.74595,-3.23462 -2.16071,-6.46918 -2.36804,-9.703743 -0.86685,-2.98711 5.10137,-20.57981 5.81171,-26.71894 0.3464,-4.88676 -3.39895,-10.46686 -7.90444,-12.4897 -5.23228,-2.3032 -9.22266,-3.84769 -14.82019,-5.18405 -1.1774,-0.23859 -1.40268,3.23864 -0.58514,3.43716 l 7.01531,2.24813 1.81895,9.01814 10.53923,4.79085 c -1.54646,8.39063 -5.87442,16.72979 -5.67427,25.12046 0.0234,4.746933 1.41507,8.726013 3.80508,12.752103 3.27684,5.76802 5.17547,15.97121 5.00648,23.38955 -0.25124,11.13806 -2.19572,16.36566 -6.92301,15.66356 -6.62147,-1.09973 -7.25822,-25.80501 -9.98133,-42.28096 -0.56568,-3.1936 -4.79466,-5.2373 -7.9634,-5.46464 l -0.0328,-61.391553 c 0.0773,-4.97067 -3.08854,-9.60094 -7.9297,-9.54431 l -67.22255,-0.0234 c -5.90241,0.0141 -7.77263,5.63793 -7.70475,9.42103 l -0.10769,129.857063 -8.51316,-0.10266 c -4.13184,-0.12375 -8.15484,3.65813 -8.19548,7.22766 z" fill="#f4d202" opacity="0.35" />
</svg>
