<svg width="350" height="350" viewBox="0 0 350 350" fill="none" xml:space="preserve" xmlns="http://www.w3.org/2000/svg">
   <path d="m 233.40234,52.791092 -11.4082,16.83008 -20.13868,-0.35742 -8.09961,-16.08594 -20.3164,5.10742 -0.46484,22.16407 -13.81055,9.04297 -17.7793,-6.49024 -12.54883,16.57813 12.97657,13.517568 -6.16407,20.68946 -18.61915,2.49414 0.33203,22.8125 19.6758,2.26953 -37.771496,45.9082 58.470706,-50.46289 c 0.064,-42.96102 21.53684,-64.163128 61.52344,-63.824218 23.80209,0.40031 47.91819,27.933628 48.32617,52.001958 -0.19178,43.83521 -44.09424,71.74745 -83.30859,48.87109 l -95.273443,51.98047 83.943363,-28.97656 0.59961,19.71679 21.13672,4.51953 8.4043,-16.57812 18.16796,0.43945 10.6504,16.53516 19.96875,-5.72461 -0.625,-20.70899 13.87304,-10.15234 17.86914,6.67774 13.38867,-16.1543 -12.63867,-13.39453 6.13672,-20.6875 18.71485,-3.35157 -1.25,-21.86523 -17.64844,-1.7832 -6.62891,-21.26172 13.57617,-13.263668 -12.60156,-16.88868 -17.04687,6.95118 -16.69141,-11.1836 1.84375,-19.8164 z m 46.64062,233.382818 c -1.47569,0 -2.83789,0.23437 -4.08789,0.70312 -1.24132,0.46875 -2.28298,1.13281 -3.125,1.99219 -0.87673,0.8941 -1.54579,1.9668 -2.00586,3.2168 -0.46007,1.25 -0.68945,2.64322 -0.68945,4.17968 0,1.64931 0.23741,3.10265 0.71485,4.36133 0.48611,1.25868 1.16818,2.30838 2.04492,3.15039 0.87673,0.84202 1.92339,1.477 3.13867,1.90235 1.22396,0.42534 2.55512,0.63671 3.99609,0.63671 0.97222,0 1.73742,-0.0471 2.29297,-0.14257 0.55556,-0.0955 1.14952,-0.23373 1.7832,-0.41602 0.48612,-0.13889 0.94987,-0.30512 1.39258,-0.49609 0.44271,-0.19098 0.90842,-0.39432 1.39453,-0.61133 v -4.63477 h -0.52148 c -0.23438,0.20834 -0.53385,0.45573 -0.89844,0.74219 -0.36458,0.28646 -0.7602,0.55491 -1.18554,0.80664 -0.50348,0.3125 -1.05339,0.5599 -1.65235,0.74219 -0.59028,0.18229 -1.18923,0.27344 -1.79687,0.27344 -0.63368,0 -1.2767,-0.0992 -1.92774,-0.29883 -0.65104,-0.20834 -1.24197,-0.55187 -1.77148,-1.0293 -0.52084,-0.46875 -0.95356,-1.11176 -1.30078,-1.92773 -0.33855,-0.81598 -0.50782,-1.8316 -0.50782,-3.04688 0,-1.16319 0.15625,-2.15278 0.46875,-2.96875 0.32118,-0.81597 0.73785,-1.47005 1.25,-1.96484 0.5382,-0.51215 1.12414,-0.87674 1.75782,-1.09375 0.63368,-0.2257 1.30078,-0.33985 2.0039,-0.33985 0.63368,0 1.2296,0.0961 1.78516,0.28711 0.55555,0.19098 1.0714,0.42535 1.54883,0.70313 0.46875,0.27778 0.88541,0.55924 1.25,0.8457 0.37326,0.28646 0.68077,0.53386 0.92382,0.74219 h 0.57422 v -4.69922 c -0.3559,-0.17361 -0.77257,-0.36089 -1.25,-0.56055 -0.46875,-0.20833 -0.99457,-0.39561 -1.57617,-0.56054 -0.55555,-0.14757 -1.16254,-0.26476 -1.82226,-0.35157 -0.65105,-0.0955 -1.3852,-0.14257 -2.20118,-0.14257 z m -140.2207,0.0254 c -2.5434,0 -4.62673,0.57291 -6.25,1.71875 -1.61458,1.13715 -2.42187,2.6085 -2.42187,4.41406 0,1.34549 0.3546,2.47526 1.0664,3.38672 0.72049,0.90278 1.89735,1.61892 3.5293,2.14844 0.71181,0.23437 1.472,0.42968 2.2793,0.58593 0.81597,0.14757 1.58724,0.30686 2.3164,0.48047 0.69445,0.16493 1.22027,0.4043 1.57617,0.7168 0.36459,0.30382 0.54688,0.6684 0.54688,1.09375 0,0.46007 -0.12522,0.80664 -0.37695,1.04101 -0.24306,0.23438 -0.55556,0.42969 -0.9375,0.58594 -0.3125,0.12153 -0.71615,0.20964 -1.21094,0.26172 -0.49479,0.0521 -0.8954,0.0781 -1.19922,0.0781 -1.18056,0 -2.41254,-0.22136 -3.69727,-0.66407 -1.27604,-0.44271 -2.4299,-1.07769 -3.46289,-1.90234 h -0.54687 v 4.64844 c 1.04167,0.43402 2.15647,0.79557 3.3457,1.08203 1.19792,0.27778 2.59918,0.41601 4.20508,0.41601 2.77778,0 4.97526,-0.59396 6.58984,-1.7832 1.62327,-1.19792 2.4336,-2.75239 2.4336,-4.66211 0,-1.3368 -0.3546,-2.42252 -1.06641,-3.25586 -0.70312,-0.84201 -1.79687,-1.50607 -3.28125,-1.99219 -0.75521,-0.24305 -1.46332,-0.43337 -2.12305,-0.57226 -0.65104,-0.13889 -1.33311,-0.28212 -2.04492,-0.42969 -1.08507,-0.22569 -1.82226,-0.47309 -2.21289,-0.74219 -0.39062,-0.27777 -0.58594,-0.67339 -0.58594,-1.18554 0,-0.33854 0.12218,-0.63802 0.36524,-0.89844 0.24305,-0.2691 0.53255,-0.46745 0.87109,-0.59766 0.38195,-0.15625 0.77756,-0.26041 1.18555,-0.3125 0.41667,-0.0608 0.83333,-0.0918 1.25,-0.0918 1.18056,0 2.33442,0.21332 3.46289,0.63867 1.13715,0.41666 2.09766,0.9375 2.87891,1.5625 h 0.5332 v -4.4668 c -0.91146,-0.37326 -1.99219,-0.68077 -3.24219,-0.92383 -1.24132,-0.25173 -2.49935,-0.3789 -3.77539,-0.3789 z m 46.23633,0 c -2.5434,0 -4.62674,0.57291 -6.25,1.71875 -1.61458,1.13715 -2.42188,2.6085 -2.42188,4.41406 0,1.34549 0.35656,2.47526 1.06836,3.38672 0.72049,0.90278 1.8954,1.61892 3.52735,2.14844 0.7118,0.23437 1.472,0.42968 2.27929,0.58593 0.81598,0.14757 1.5892,0.30686 2.31836,0.48047 0.69445,0.16493 1.21832,0.4043 1.57422,0.7168 0.36459,0.30382 0.54688,0.6684 0.54688,1.09375 0,0.46007 -0.12522,0.80664 -0.37696,1.04101 -0.24305,0.23438 -0.55555,0.42969 -0.9375,0.58594 -0.3125,0.12153 -0.71614,0.20964 -1.21093,0.26172 -0.49479,0.0521 -0.89345,0.0781 -1.19727,0.0781 -1.18055,0 -2.41449,-0.22136 -3.69922,-0.66407 -1.27604,-0.44271 -2.4299,-1.07769 -3.46289,-1.90234 h -0.54687 v 4.64844 c 1.04166,0.43402 2.15646,0.79557 3.3457,1.08203 1.19792,0.27778 2.60113,0.41601 4.20703,0.41601 2.77778,0 4.97331,-0.59396 6.58789,-1.7832 1.62327,-1.19792 2.43555,-2.75239 2.43555,-4.66211 0,-1.3368 -0.35655,-2.42252 -1.06836,-3.25586 -0.70313,-0.84201 -1.79688,-1.50607 -3.28125,-1.99219 -0.75521,-0.24305 -1.46333,-0.43337 -2.12305,-0.57226 -0.65104,-0.13889 -1.33116,-0.28212 -2.04297,-0.42969 -1.08507,-0.22569 -1.82421,-0.47309 -2.21484,-0.74219 -0.39063,-0.27777 -0.58594,-0.67339 -0.58594,-1.18554 0,-0.33854 0.12218,-0.63802 0.36524,-0.89844 0.24305,-0.2691 0.5345,-0.46745 0.87304,-0.59766 0.38195,-0.15625 0.77561,-0.26041 1.1836,-0.3125 0.41666,-0.0608 0.83333,-0.0918 1.25,-0.0918 1.18055,0 2.33637,0.21332 3.46484,0.63867 1.13715,0.41666 2.0957,0.9375 2.87695,1.5625 h 0.53321 v -4.4668 c -0.91146,-0.37326 -1.99219,-0.68077 -3.24219,-0.92383 -1.24132,-0.25173 -2.49935,-0.3789 -3.77539,-0.3789 z m -92.017583,0.35156 v 19.38867 h 4.972657 v -8.28125 h 8.269526 v -3.75 h -8.269526 v -3.60742 h 8.919916 v -3.75 z m 22.343743,0 -7.16211,19.38867 h 5.03906 l 1.3418,-3.91992 h 7.18751 l 1.33984,3.91992 h 5.16993 l -7.16211,-19.38867 z m 32.70704,0 v 3.75 h 6.05469 v 15.63867 h 5 v -15.63867 h 6.05469 v -3.75 z m 48.17774,0 v 19.38867 h 14.02343 v -3.75 h -9.04882 v -4.79101 h 8.39843 v -3.75 h -8.39843 v -3.34766 h 9.04882 v -3.75 z m 18.21679,0 v 19.38867 h 4.97266 v -7.10937 h 2.30469 l 5.28711,7.10937 h 6.10742 l -6.47266,-8.30664 c 1.23264,-0.59896 2.18012,-1.35113 2.83985,-2.25391 0.6684,-0.90277 1.00195,-2.06966 1.00195,-3.50195 0,-1.04167 -0.21636,-1.90603 -0.65039,-2.5918 -0.42535,-0.69444 -1.00326,-1.25737 -1.73242,-1.6914 -0.72049,-0.43403 -1.49371,-0.71745 -2.31836,-0.84766 -0.82466,-0.13021 -1.80925,-0.19531 -2.95508,-0.19531 z m 18.69727,0 7.07031,19.38867 h 5.59961 l 7.07031,-19.38867 h -5.11718 l -4.6875,13.62109 -4.6875,-13.62109 z m 21.6543,0 v 3.4375 h 3.17578 v 12.51367 h -3.17578 v 3.4375 h 11.35351 v -3.4375 h -3.17773 v -12.51367 h 3.17773 v -3.4375 z m 34.72656,0 v 19.38867 h 14.02344 v -3.75 h -9.05078 v -4.79101 h 8.39843 v -3.75 h -8.39843 v -3.34766 h 9.05078 v -3.75 z m -70.10547,3.56836 h 1.81055 c 0.59896,0 1.12478,0.018 1.57617,0.0527 0.45139,0.026 0.84505,0.10721 1.18359,0.2461 0.48611,0.19965 0.82965,0.47309 1.0293,0.82031 0.19965,0.34722 0.29883,0.76389 0.29883,1.25 0,0.54687 -0.0812,0.98654 -0.2461,1.31641 -0.15625,0.32118 -0.40863,0.61566 -0.75586,0.88476 -0.36458,0.27778 -0.81532,0.45508 -1.35351,0.5332 -0.5382,0.0781 -1.20725,0.11719 -2.00586,0.11719 h -1.53711 z m -101.26173,1.39258 2.38281,6.95312 h -4.76562 z" opacity="0.35" fill="#c4cfd6" />
   <path d="m 163.2066,160.87649 c -0.10536,-50.45645 29.92547,-68.396588 71.45248,-59.03205 l -39.13149,25.35082 0.4614,32.16289 28.00986,11.0738 35.60336,-23.99666 c -1.55336,50.67764 -47.98058,57.6382 -77.23896,42.10362 L 33.594335,268.78799 Z" opacity="0.35" fill="#0f85cf" />
</svg>