<svg width="512" height="450" viewBox="0 0 512 450" fill="none" xml:space="preserve" xmlns="http://www.w3.org/2000/svg">
  <path d="m 306.90871,70.833954 c -0.90754,0.01346 -1.89482,0.318358 -2.87492,0.872187 l -40.41424,23.380747 -0.0715,20.173972 11.24505,-6.56872 0.0738,-6.61027 25.42085,-12.647802 0.0759,271.390212 -4.91664,-2.29303 0.12509,13.18336 11.53098,6.51627 10.49,-7.04963 -0.11391,-12.78554 -5.15119,2.86358 0.27254,-271.659092 25.53923,13.345132 -0.0827,5.2375 12.00677,7.0387 -0.0424,-19.544442 -40.70687,-23.970947 c -0.66923,-0.607597 -1.49828,-0.885651 -2.40583,-0.872187 z m 61.13737,35.101716 0.009,236.52022 17.71194,-9.82577 0.71036,-10.11432 c 0.0843,-0.93052 -3.02541,-2.05567 -3.6858,-1.57387 l -1.78483,3.19583 -0.25018,-71.75327 49.95487,-29.24342 0.14967,7.25731 10.63744,-6.64962 0.18317,-20.22208 -61.41435,34.91155 0.20997,-111.40392 49.83648,27.48155 0.24125,5.95667 8.34554,5.81678 c 0.8898,0.64397 3.91653,-0.72729 3.85111,-1.61322 l -0.0469,-16.65244 z m -160.07316,22.09761 c -1.06499,-3.1e-4 -2.1442,0.31087 -3.44232,0.9312 l -24.84452,13.87631 c -1.13454,-16.29394 -20.26855,-14.21134 -38.9131,-9.96565 L 0,161.37533 c 15.399874,25.62107 24.163382,34.4548 40.588471,35.41868 2.699998,13.32131 14.305043,21.94918 28.8989,23.58623 5.962803,19.10274 24.062089,26.40907 40.076929,22.8911 l 26.7321,-6.34576 10.57936,-16.26992 -39.73069,9.80829 c -7.02882,1.56239 -15.535464,1.55038 -24.723886,-11.27505 l 53.077746,-10.23454 11.91519,-16.97159 -71.544729,15.12885 c -5.968681,1.20214 -15.489683,-0.53319 -19.843005,-11.74503 l 79.273734,-15.87862 13.0589,-14.84029 -98.745923,20.20895 C 34.784244,187.82151 26.216168,180.00792 20.412628,167.94406 L 140.99636,144.2398 c 16.6555,-3.36696 29.27975,-4.47643 29.21387,12.3527 l 0.24796,143.91095 34.86989,20.23519 c 1.52508,0.98327 3.48935,1.07246 5.23384,-0.0896 l 33.40898,-19.83297 0.23008,-153.70174 -32.86839,-18.13888 c -1.24327,-0.62901 -2.29469,-0.94183 -3.35967,-0.94214 z m -0.0157,12.34834 c 0.68056,0.005 1.39309,0.18106 2.16904,0.51152 l 22.155,13.53966 0.2837,140.69107 -24.83336,13.66208 -25.65987,-13.80854 0.21669,-140.35662 23.68964,-13.7211 c 0.6493,-0.35587 1.2986,-0.52279 1.97916,-0.51807 z" fill="#0f85cf" />
  <path d="m 310.78886,0 -0.038,7.694488 7.26661,0.03498 -0.13849,28.008365 -7.26662,-0.03497 -0.038,7.694487 25.97036,0.122408 0.038,-7.694488 -7.26661,-0.0328 0.1385,-28.010544 7.2666,0.03497 0.0403,-7.694483 z m -31.18857,1.584811 -11.19812,2.28211 3.3105,15.550732 -16.53247,3.368525 -3.31053,-15.550741 -11.19589,2.282129 9.04026,42.485794 11.19812,-2.28211 -3.98512,-18.715966 16.53472,-3.370704 3.98289,18.718145 11.19591,-2.282119 z m 102.81147,8.195055 c -2.1861,0.01185 -4.25109,0.354973 -6.19661,1.02958 -2.70029,0.935121 -5.15175,2.433649 -7.35373,4.494281 -2.20198,2.060624 -4.07558,4.635884 -5.62028,7.725083 -1.65816,3.316098 -2.62842,6.473439 -2.91291,9.473839 -0.26665,3.008945 0.0772,5.790397 1.03202,8.345891 0.95485,2.555506 2.46532,4.858936 4.53466,6.909741 2.08716,2.059351 4.61196,3.797986 7.57265,5.215641 1.99755,0.956489 3.61438,1.612759 4.85184,1.967342 1.23747,0.354574 2.6004,0.658997 4.08566,0.915896 1.13842,0.198998 2.25806,0.324413 3.35966,0.375985 1.10161,0.05157 2.26109,0.100168 3.47805,0.142093 l 4.65975,-9.320831 -1.06999,-0.511503 c -0.69102,0.188294 -1.55639,0.390416 -2.59348,0.60769 -1.03707,0.217274 -2.11871,0.369179 -3.24574,0.456858 -1.34862,0.132985 -2.7298,0.08941 -4.14372,-0.133341 -1.39608,-0.214205 -2.71878,-0.621948 -3.96726,-1.219747 -1.302,-0.623427 -2.51983,-1.45442 -3.65676,-2.496342 -1.1282,-1.059376 -1.99667,-2.331403 -2.60465,-3.812269 -0.59884,-1.454867 -0.84408,-3.17223 -0.73714,-5.15443 0.12477,-1.97366 0.79757,-4.182133 2.01936,-6.625563 1.16944,-2.338714 2.48473,-4.17541 3.94717,-5.508552 1.48025,-1.324613 2.99615,-2.232606 4.54582,-2.723679 1.62069,-0.500245 3.19095,-0.657065 4.71111,-0.469971 1.52889,0.169648 3.01627,0.602324 4.46093,1.294075 1.30198,0.623419 2.42583,1.399669 3.3753,2.330199 0.94948,0.930539 1.77563,1.909696 2.47731,2.937893 0.68381,1.019697 1.25671,1.996704 1.7178,2.931342 0.47893,0.943177 0.86272,1.744346 1.15266,2.402343 l 1.17721,0.563965 4.72676,-9.451971 c -0.55625,-0.699541 -1.22575,-1.483113 -2.00596,-2.354248 -0.75364,-0.880059 -1.64472,-1.773983 -2.67388,-2.677772 -0.99311,-0.843273 -2.12495,-1.674948 -3.39317,-2.498526 -1.24166,-0.832493 -2.69951,-1.649852 -4.37605,-2.452616 -3.03202,-1.451807 -6.06771,-2.322702 -9.10728,-2.610007 -0.75543,-0.0697 -1.49841,-0.102307 -2.22711,-0.098369 z m -176.62799,14.19983 -28.14164,15.065453 21.28606,38.072404 28.14162,-15.065453 -4.11691,-7.364409 -18.1587,9.723036 -5.26289,-9.410448 16.85416,-9.021342 -4.11693,-7.36442 -16.85415,9.023538 -3.67239,-6.573098 18.1587,-9.720848 z m 233.78022,10.230168 -27.12748,34.332272 25.30692,19.146592 5.24723,-6.640864 -16.25772,-12.300249 21.87801,-27.691406 z m -286.1208,20.499689 -9.31948,6.931592 10.31577,30.620553 -27.38885,-17.922458 -9.55627,7.106478 39.7128,24.976462 10.19503,-7.585352 z m 339.95134,21.428709 -36.1253,25.171028 18.60323,25.57105 6.98962,-4.86808 -12.00677,-16.50161 8.92857,-6.221172 11.14228,15.314652 6.98739,-4.87026 -11.14229,-15.312452 6.23459,-4.34565 12.00676,16.501612 L 512,101.70931 Z m -14.7566,249.702878 -25.6286,18.87771 26.67403,34.67329 25.62635,-18.87992 -5.15785,-6.70646 -16.53915,12.18443 -6.592,-8.56886 15.34858,-11.30781 -5.15784,-6.70646 -15.34859,11.3078 -4.60388,-5.9851 16.53918,-12.1822 z m -320.55733,9.28802 c -3.05157,0.0993 -5.67776,1.21811 -7.87645,3.35322 -2.1846,2.12143 -3.44216,4.46629 -3.77515,7.03433 -0.30492,2.56815 0.42614,5.56515 2.19584,8.99293 0.76635,1.5005 1.67375,3.01554 2.7208,4.54456 1.07511,1.52913 2.06013,3.00956 2.95309,4.44181 0.85113,1.36341 1.30999,2.57484 1.37604,3.63303 0.0941,1.0583 -0.20515,1.92187 -0.89576,2.59251 -0.74699,0.72539 -1.51243,1.07315 -2.2986,1.0427 -0.77216,-0.0166 -1.5948,-0.20565 -2.46389,-0.56615 -0.70084,-0.3049 -1.49053,-0.80864 -2.37232,-1.51267 -0.88179,-0.70402 -1.56783,-1.29663 -2.05735,-1.77935 -1.90216,-1.87573 -3.52971,-4.18362 -4.88089,-6.92285 -1.3372,-2.72545 -2.1675,-5.5596 -2.49295,-8.5011 l -0.88235,-0.86781 -7.54584,7.32943 c 0.97367,2.33938 2.18563,4.67786 3.63666,7.01903 1.47912,2.34127 3.51307,4.78884 6.10055,7.34036 4.47566,4.41348 8.97776,6.96489 13.51013,7.65515 4.56046,0.69036 8.39228,-0.46896 11.49299,-3.48001 2.17051,-2.10773 3.35903,-4.384 3.56518,-6.82886 0.23423,-2.44476 -0.45047,-5.22974 -2.05288,-8.35464 -0.82218,-1.58313 -1.65101,-3.00849 -2.48847,-4.27568 -0.82347,-1.2534 -1.69065,-2.56232 -2.59793,-3.92594 -1.38186,-2.07986 -2.16867,-3.64171 -2.36115,-4.68664 -0.17837,-1.05862 0.1491,-1.99266 0.98065,-2.80018 0.54967,-0.53379 1.23174,-0.81279 2.04618,-0.8372 0.82853,-0.0382 1.62213,0.109 2.37901,0.44154 0.8691,0.36049 1.67283,0.82415 2.41476,1.39026 0.77001,0.56621 1.49099,1.18073 2.16234,1.84274 1.90215,1.87571 3.4182,4.04392 4.54582,6.50753 1.1557,2.4637 1.85578,4.80979 2.09978,7.03652 l 0.86003,0.84814 7.25097,-7.04089 c -0.86253,-2.03669 -2.10437,-4.24099 -3.72378,-6.61027 -1.59133,-2.36917 -3.41461,-4.56753 -5.47061,-6.59496 -4.09803,-4.04108 -8.3842,-6.44766 -12.86009,-7.22012 -1.11196,-0.19311 -2.17718,-0.27358 -3.19436,-0.24047 z m 275.77822,27.34385 c -0.88932,0.16831 -1.9086,0.39675 -3.05587,0.682 -1.14335,0.25806 -2.36011,0.62948 -3.65005,1.11702 -1.21848,0.48354 -2.49003,1.09285 -3.81536,1.82524 -1.32142,0.7052 -2.72808,1.60608 -4.21969,2.70402 -2.69757,1.98564 -4.86663,4.23845 -6.50711,6.75889 -1.6246,2.50876 -2.61566,5.09857 -2.97321,7.76881 -0.37329,2.7791 -0.1205,5.59575 0.75726,8.45082 0.87777,2.85509 2.37284,5.65648 4.4855,8.40493 2.26781,2.95034 4.70336,5.23063 7.30682,6.83978 2.61935,1.59748 5.30808,2.55891 8.06855,2.88543 2.76047,0.32652 5.54585,0.0523 8.35225,-0.82192 2.82228,-0.88601 5.54836,-2.29744 8.18248,-4.23632 1.77744,-1.30792 3.10983,-2.42174 3.99406,-3.34012 0.88428,-0.91834 1.77958,-1.96683 2.6873,-3.14554 0.69763,-0.90255 1.32078,-1.82355 1.86746,-2.76086 0.54669,-0.93729 1.11419,-1.92619 1.70441,-2.96849 l -6.37308,-8.29125 -0.9538,0.69954 c -0.14198,0.68804 -0.34843,1.53488 -0.62101,2.53787 -0.27257,1.00299 -0.6252,2.01581 -1.05659,3.03844 -0.49066,1.23646 -1.15726,2.42014 -2.00151,3.55215 -0.82838,1.12033 -1.79765,2.08968 -2.90843,2.90728 -1.15815,0.85296 -2.47134,1.53812 -3.93598,2.05697 -1.47658,0.50334 -3.02638,0.68366 -4.65081,0.5421 -1.59664,-0.1377 -3.27385,-0.70164 -5.03055,-1.69408 -1.74085,-1.00412 -3.44665,-2.59359 -5.11769,-4.76751 -1.59943,-2.08076 -2.67267,-4.06125 -3.22339,-5.94138 -0.53486,-1.89179 -0.67583,-3.62393 -0.41996,-5.19814 0.27959,-1.64034 0.8489,-3.08293 1.70887,-4.32378 0.84804,-1.25637 1.91573,-2.35687 3.20106,-3.30295 1.15814,-0.85295 2.37637,-1.48274 3.65453,-1.88865 1.27816,-0.40591 2.54501,-0.68078 3.79973,-0.82628 1.23882,-0.13384 2.38866,-0.19017 3.44901,-0.16832 1.07621,0.0101 1.97885,0.0397 2.70962,0.0854 l 1.04739,-0.77197 z m -228.34311,7.59173 -26.05524,35.11923 25.95696,18.44271 5.03949,-6.79388 -16.75139,-11.90022 6.44008,-8.68035 15.54515,11.04553 5.03949,-6.7917 -15.54514,-11.04552 4.49891,-6.06159 16.74917,11.9024 5.03949,-6.79387 z m 178.45749,20.15213 -22.4387,12.79865 3.96056,6.64741 6.27702,-3.58054 14.41483,24.19827 -6.27702,3.58057 3.95831,6.64741 22.4387,-12.79863 -3.96055,-6.64742 -6.27703,3.58055 -14.41483,-24.1961 6.27704,-3.58274 z m -133.82133,4.197 -12.68139,41.58739 10.90326,3.18272 4.64859,-15.24908 5.05289,1.47551 6.93601,18.6329 13.38727,3.90844 -8.75211,-21.96207 c 3.0936,-0.49581 5.65899,-1.50023 7.69551,-3.01442 2.05556,-1.50857 3.55095,-3.7982 4.48773,-6.87037 0.68131,-2.23432 0.7709,-4.22765 0.26807,-5.97635 -0.47813,-1.76176 -1.37512,-3.34145 -2.68952,-4.7391 -1.29538,-1.3921 -2.8033,-2.49149 -4.52572,-3.29857 -1.72242,-0.80709 -3.83916,-1.57717 -6.35074,-2.31054 z m 8.56892,10.83567 3.96727,1.15854 c 1.31287,0.38335 2.45103,0.75802 3.41774,1.12138 0.97237,0.34477 1.78587,0.77293 2.43709,1.28752 0.93493,0.73936 1.50728,1.5451 1.7178,2.41765 0.21053,0.87255 0.15712,1.83182 -0.16083,2.8745 -0.35768,1.17301 -0.82557,2.0605 -1.40284,2.66248 -0.55255,0.58889 -1.29673,1.05933 -2.23381,1.41428 -0.98082,0.36248 -2.08645,0.4567 -3.31722,0.27981 -1.23078,-0.1769 -2.72162,-0.52061 -4.47211,-1.03177 l -3.3686,-0.98366 z m 87.42047,1.16074 -11.70521,0.0766 -10.51011,30.55716 -10.93454,-30.4129 -12.0023,0.0787 16.47216,43.29024 12.80872,-0.0852 z" fill="#c4cfd6" />
</svg>