<svg width="48" height="27" viewBox="0 0 48 27" fill="none" xml:space="preserve" xmlns="http://www.w3.org/2000/svg">
    <path d="M 14.030595,10.330432 C 14.055613,9.5589517 13.550539,8.2757717 11.557542,8.6755105 L 1.6732752,10.661135 c 0.4757152,1.010538 1.1781296,1.665094 2.393648,1.416739 l 8.0941628,-1.692923 -1.070564,1.243233 -6.4979524,1.329947 c 0.35684,0.939168 1.1372112,1.084491 1.626464,0.983793 l 5.8645884,-1.267165 -0.976737,1.421605 -4.3508275,0.857303 c 0.7531729,1.074332 1.45044,1.075318 2.0265921,0.944443 L 12.03939,15.076612 11.172326,16.439355 8.9809423,16.970917 C 7.6682096,17.265603 6.184744,16.65362 5.6959744,15.053463 4.4997184,14.916335 3.5484528,14.193691 3.3271344,13.07782 1.9807728,12.997081 1.2623248,12.256995 0,10.110826 L 11.539139,7.7234911 c 2.156039,-0.4733454 3.231943,0.6841308 3.405506,2.0904019 l 8.372134,-1.7826216 -0.116864,3.2036806 -5.652939,1.14691 -0.0398,1.517044 5.184681,-1.163826 -0.152295,3.042694 -5.030047,0.976339 -0.160325,4.168748 -3.660168,0.725092 z m 11.136077,-2.695723 3.698402,-0.7789292 -0.443733,8.3047912 5.064808,-1.038955 -0.223069,3.429315 -8.530067,1.742423 z m 10.208734,4.976989 -3.706491,-6.2837638 3.985328,-0.8465973 1.660781,3.5614331 2.096733,-4.3734309 4.416657,-0.8823802 -4.811816,8.7653491 -0.152541,3.820076 -3.711121,0.730552 z" fill="#0f85cf" />
    <path d="M 35.537467,0 32.636835,0.6206444 33.503421,4.5930802 36.403722,3.9721086 36.236422,3.2037571 34.364717,3.6046379 34.150467,2.6227454 35.887605,2.251015 35.719976,1.4826635 33.982837,1.8543955 33.833392,1.1689036 35.705098,0.76835312 Z M 46.93335,0.40186231 c -0.420408,-0.003923 -0.961603,0.0970648 -1.61712,0.31277682 L 37.402893,3.2636953 45.709352,1.6460941 c 0.84201,-0.2066543 1.108126,0.2110903 0.641757,1.0241394 L 42.483378,10.143159 47.286466,2.9944774 C 48.369194,1.3685236 48.194577,0.41365017 46.93335,0.40186231 Z M 31.613531,0.83975049 30.579314,1.0611516 30.89639,2.5149934 29.369533,2.8418547 29.052456,1.3880112 28.018242,1.6094123 28.884827,5.5815225 29.918712,5.3601214 29.537162,3.6102046 31.064018,3.2833449 31.445899,5.0332602 32.480117,4.8118607 Z M 27.39599,1.7423838 23.85724,2.4999274 24.02487,3.268279 25.277304,3.0000425 25.976259,6.2041268 27.010146,5.9827289 26.311518,2.7786446 27.563622,2.5107354 Z m -5.275559,1.1551463 -0.947921,0.2030602 0.496279,2.2755786 -1.958663,-1.9628002 -1.23623,0.2646328 0.866586,3.9724357 0.94792,-0.2030601 -0.594808,-2.7262394 2.296899,2.362042 0.996525,-0.2132106 z m -5.991045,1.2052582 c -0.133888,-3.176e-4 -0.270704,0.012738 -0.409322,0.040285 -1.27535,0.2968945 -2.024702,1.2248824 -1.735486,2.5762372 0.294035,1.2764761 1.219184,1.7722744 2.477753,1.510502 1.294696,-0.2936603 1.901331,-1.3207936 1.656135,-2.3954499 -0.258419,-1.0617582 -1.051874,-1.7289648 -1.98908,-1.7315743 z m 0.05389,1.0058017 c 0.492242,0.024273 0.76204,0.4685522 0.859973,0.9530692 0.149597,0.6716918 -0.09754,1.1775213 -0.760784,1.3221806 -0.732568,0.1503452 -1.083336,-0.2683365 -1.223337,-0.894446 -0.132298,-0.5693143 0.165777,-1.1760077 0.899318,-1.3644307 0.07955,-0.014787 0.15451,-0.019842 0.22483,-0.016373 z m 24.146036,12.564807 -2.90361,0.606557 0.846749,3.976367 2.903608,-0.606558 -0.163663,-0.769006 -1.873691,0.391381 -0.209289,-0.982874 1.738793,-0.363216 -0.163664,-0.769007 -1.739123,0.363215 -0.146139,-0.686473 1.873688,-0.391382 z m -4.433111,0.908855 c -0.06547,0.0011 -0.133145,0.0042 -0.203339,0.0095 -0.138967,0.0085 -0.292947,0.03053 -0.461891,0.06583 -0.305543,0.06384 -0.57733,0.171079 -0.815669,0.321292 -0.236544,0.149838 -0.423283,0.330995 -0.560091,0.543675 -0.14248,0.221306 -0.234088,0.470136 -0.274755,0.746409 -0.04067,0.276274 -0.02742,0.571789 0.03967,0.886913 0.07203,0.338268 0.184749,0.626159 0.338567,0.863656 0.155617,0.237125 0.342785,0.423322 0.561084,0.558088 0.218298,0.134767 0.462482,0.219487 0.732678,0.254153 0.271996,0.03429 0.557324,0.02008 0.855676,-0.04225 0.201297,-0.04206 0.357316,-0.08477 0.468174,-0.128385 0.110856,-0.04362 0.22789,-0.09797 0.351131,-0.162777 0.09458,-0.04951 0.183498,-0.103471 0.266819,-0.161791 0.08332,-0.05832 0.170359,-0.120164 0.261532,-0.185701 l -0.202349,-0.950777 -0.107786,0.02259 c -0.03943,0.05287 -0.09077,0.116419 -0.153744,0.190941 -0.06298,0.07453 -0.132877,0.147113 -0.20995,0.217146 -0.0906,0.08587 -0.193749,0.160392 -0.309803,0.223692 -0.114255,0.06292 -0.234576,0.10734 -0.360388,0.133625 -0.131201,0.02742 -0.268449,0.03472 -0.411966,0.02194 -0.143896,-0.01456 -0.281152,-0.05927 -0.411637,-0.13428 -0.128309,-0.0736 -0.246249,-0.186646 -0.353777,-0.33898 -0.105727,-0.152708 -0.184981,-0.353704 -0.238055,-0.602955 -0.0508,-0.238568 -0.0618,-0.448286 -0.03273,-0.629158 0.03087,-0.181246 0.08849,-0.333575 0.172922,-0.457211 0.08907,-0.128322 0.19469,-0.22841 0.316414,-0.300333 0.121346,-0.0737 0.254815,-0.125809 0.400394,-0.156225 0.131203,-0.02742 0.258514,-0.03347 0.38188,-0.01834 0.123368,0.01514 0.240482,0.04065 0.351464,0.07697 0.109184,0.0367 0.207587,0.07656 0.295584,0.119545 0.08979,0.0426 0.164414,0.08013 0.223838,0.112338 l 0.118696,-0.0249 -0.205321,-0.963878 c -0.08127,-0.02021 -0.175451,-0.04062 -0.283023,-0.06092 -0.106152,-0.02244 -0.223177,-0.03784 -0.350798,-0.0465 -0.06074,-0.0032 -0.123989,-0.0041 -0.189453,-0.003 z m -3.309624,0.708743 -2.35079,0.491274 0.150105,0.705141 0.657628,-0.137557 0.546534,2.566413 -0.657627,0.137228 0.150107,0.705143 2.350792,-0.491276 -0.150107,-0.704812 -0.657959,0.13723 -0.546534,-2.566413 0.657957,-0.13723 z m -2.747219,0.574135 -1.059344,0.221401 -0.375928,2.996113 -1.565211,-2.590649 -1.086456,0.226968 2.310456,3.670468 1.159193,-0.242034 z m -5.469971,1.211808 c -0.04359,-0.002 -0.08748,-0.0019 -0.131592,3.18e-4 -0.17643,0.0089 -0.383353,0.03821 -0.620595,0.08777 l -1.736148,0.362887 0.846748,3.976369 1.029587,-0.215179 -0.310463,-1.4581 0.477432,-0.09989 1.404855,1.229491 1.264336,-0.263976 -1.702423,-1.424039 c 0.22906,-0.176167 0.392165,-0.370919 0.489333,-0.584615 0.09897,-0.21407 0.117106,-0.468041 0.05456,-0.761802 -0.04549,-0.213641 -0.12816,-0.381519 -0.247972,-0.50339 -0.118396,-0.124029 -0.26254,-0.214691 -0.432468,-0.272167 -0.126097,-0.04339 -0.254419,-0.06789 -0.385185,-0.07369 z m -3.356575,0.632432 -2.903606,0.606558 0.846747,3.976369 2.90361,-0.60656 -0.163664,-0.769333 -1.87369,0.391707 -0.209291,-0.982874 1.738794,-0.363215 -0.163663,-0.769334 -1.738793,0.363543 -0.14614,-0.686471 1.87369,-0.391382 z m 2.892037,0.188321 c 0.04269,-8.5e-5 0.08293,0.0036 0.121011,0.01048 0.109367,0.01992 0.192466,0.06123 0.248964,0.123801 0.0565,0.06258 0.09549,0.143644 0.116716,0.243345 0.02388,0.11216 0.02569,0.205562 0.006,0.280352 -0.01832,0.07263 -0.05756,0.143984 -0.117703,0.214194 -0.06335,0.07274 -0.14888,0.128712 -0.256901,0.168017 -0.108019,0.03931 -0.244632,0.07648 -0.409982,0.111029 l -0.318398,0.06649 -0.227806,-1.070976 0.374605,-0.07827 c 0.124014,-0.02591 0.233672,-0.04523 0.328649,-0.05764 0.0473,-0.007 0.09221,-0.01072 0.134896,-0.0108 z m -7.333742,0.745097 c -0.268007,0.0021 -0.534272,0.0306 -0.798475,0.08582 -0.526608,0.110025 -0.932655,0.317704 -1.218709,0.622933 -0.284635,0.303072 -0.387661,0.639743 -0.30881,1.010056 0.05876,0.275957 0.181802,0.492009 0.368984,0.648156 0.188602,0.153987 0.46325,0.25021 0.824266,0.288214 0.157614,0.01727 0.323629,0.02449 0.497601,0.02162 0.175389,-0.0051 0.342351,-0.0057 0.500906,-0.0016 0.150987,0.0038 0.270077,0.03024 0.357413,0.07893 0.08876,0.04654 0.142441,0.113204 0.161017,0.20044 0.02009,0.09436 0.0092,0.170957 -0.03273,0.229916 -0.04008,0.05859 -0.09636,0.112241 -0.168621,0.160811 -0.05939,0.03844 -0.139208,0.0737 -0.239378,0.105787 -0.100167,0.03208 -0.181763,0.05466 -0.244667,0.0678 -0.244434,0.05107 -0.509177,0.05913 -0.794507,0.02391 -0.283536,-0.0356 -0.550239,-0.115621 -0.800131,-0.240069 l -0.113076,0.02359 0.203008,0.953398 c 0.234631,0.04395 0.481215,0.06966 0.739956,0.07697 0.260155,0.0052 0.556568,-0.02715 0.889067,-0.09661 0.575134,-0.120164 1.003795,-0.337018 1.286158,-0.650772 0.283779,-0.315912 0.383944,-0.6698 0.300543,-1.061479 -0.05838,-0.274175 -0.179594,-0.481177 -0.363364,-0.621299 -0.182352,-0.142276 -0.437839,-0.231109 -0.766404,-0.266595 -0.16698,-0.01718 -0.321546,-0.02593 -0.464208,-0.02588 -0.140861,-3.18e-4 -0.288232,-1.59e-4 -0.442053,3.17e-4 -0.23452,6.36e-4 -0.39803,-0.01804 -0.490658,-0.05633 -0.09301,-0.04007 -0.150885,-0.112758 -0.173251,-0.2178 -0.01478,-0.06944 -0.0026,-0.136186 0.03637,-0.200112 0.03857,-0.0657 0.09,-0.119133 0.154404,-0.160481 0.07226,-0.04857 0.149576,-0.08695 0.231773,-0.115286 0.08362,-0.03048 0.168317,-0.05468 0.254587,-0.07271 0.244432,-0.05107 0.49302,-0.05741 0.745244,-0.019 0.253641,0.03626 0.474856,0.101464 0.663908,0.195853 l 0.110431,-0.02293 -0.195072,-0.91606 c -0.205019,-0.03712 -0.442096,-0.05368 -0.71152,-0.04945 z" fill="#c4cfd6" />
</svg>